<svg version="1" xmlns="http://www.w3.org/2000/svg" width="666.667" height="666.667" viewBox="0 0 500.000000 500.000000"><path d="M234.5 52.1c-3.8.4-17.3 1.2-30 1.8-44 1.8-72.1 8.6-104.5 25.2-7.4 3.8-17.8 10-23 13.7-10.7 7.6-28.4 24.3-37.1 34.8-15.4 18.9-29.8 45.3-37.8 69.6l-2.2 6.7 3.6 7c9.6 18.2 29 31.6 52.7 36.5 4.2.9 9.2 1.6 11 1.6 6.3 0 6.3.2 3.2 16.6-3.8 19.6-4 42.1-.6 58.1 7.7 35.7 27.7 66.3 57.3 87.6 10.5 7.5 35.3 20.2 47.2 24.1 25.7 8.6 47.1 11.9 77.2 11.9 39.4.1 68.9-6 99.4-20.4 16.8-8 30.3-17.2 42.8-29.2 15.9-15.3 26.4-30.5 33.8-49 7.2-17.8 11.4-42.9 10-60.2-.6-7.9-4.6-33-6.1-37.8-.4-1.4.1-1.7 2.9-1.7 5.3 0 22.3-4.6 29.5-8 14.3-6.7 26.1-17.6 32.8-30.2l3.6-7-3.2-9.1c-7.2-20.6-19.3-43.8-31.6-60.5-8.2-11-31.2-33.5-42.4-41.4-11.3-8-32.6-19.1-46.5-24.3-12.5-4.7-32.6-9.8-47-12-6-.9-21.1-2.1-33.5-2.6-12.4-.4-26.3-1.3-31-1.8-9.8-1.1-20.6-1.1-30.5 0zm45 25.8c20.1 4.2 19.4 3.8 28.9 16.4 11.4 15.3 27.7 40.3 50.6 77.7 21 34.2 32.5 51.9 40.3 61.9 5.5 7.1 6.7 10.7 11.3 33.6 5 25.5 4.1 45.7-3.1 67.3-10.4 31.1-32.1 54.1-65.9 70.3-57.7 27.4-138.3 24.7-191-6.5-32.5-19.3-52.4-47.6-58.1-82.6-3.1-19.2-1.5-36.8 6.1-68.5l3.7-15L112 218c5.3-8 18.4-28.7 29-46 22.4-36.7 39-62.2 50.3-77.3l8-10.7 7.7-2.5c7.1-2.2 19.3-4.8 28-5.9 8-1 35.7.4 44.5 2.3z"/><path d="M178.2 204c-12 2.8-18.5 16.2-13.3 27.5 8.8 19 37.1 13 37.3-7.9.1-9.6-6-17.4-15.2-19.5-2.5-.6-4.7-1-5-1-.3.1-2 .5-3.8.9zM316.6 204.2c-5.4 1.5-12.1 8.2-13.6 13.7-3.3 12.2 5.2 24 17.8 24.9 17.7 1.1 27.6-19.1 15.9-32.4-5.2-6-12.5-8.2-20.1-6.2zM236 283.6c-16.5 1.5-33 5.3-41.3 9.5-6.2 3.2-12.2 8.4-14.1 12.3-3.5 7.4-1.6 20.6 4.9 34.1 7.4 15.4 19.5 27.7 35.7 36.4 14.4 7.8 29 9.9 42.8 6 31.3-8.6 57-39 57-67.2 0-7.9-1.3-11-6.7-15.7-12.6-11.1-48.3-18.1-78.3-15.4z"/></svg>