<?xml version="1.0" standalone="no"?>
<!DOCTYPE svg PUBLIC "-//W3C//DTD SVG 20010904//EN"
 "http://www.w3.org/TR/2001/REC-SVG-20010904/DTD/svg10.dtd">
<svg version="1.0" xmlns="http://www.w3.org/2000/svg"
 width="1024.000000pt" height="1024.000000pt" viewBox="0 0 1024.000000 1024.000000"
 preserveAspectRatio="xMidYMid meet">
<metadata>
Created by potrace 1.14, written by Peter Selinger 2001-2017
</metadata>
<g transform="translate(0.000000,1024.000000) scale(0.100000,-0.100000)"
fill="#000000" stroke="none">
<path d="M5625 9827 c-16 -5 -43 -12 -58 -17 -24 -7 -27 -7 -17 5 10 12 5 13
-26 8 -40 -7 -87 -27 -79 -34 4 -4 -27 -10 -67 -12 -9 -1 -15 -4 -12 -8 2 -4
-3 -10 -12 -13 -8 -3 -12 -2 -9 4 3 6 5 10 3 10 -14 0 -155 -43 -172 -53 -12
-6 -23 -12 -26 -12 -30 -7 -67 -19 -75 -24 -5 -3 -17 -6 -25 -8 -9 -1 -34 -10
-55 -19 -22 -10 -43 -17 -48 -16 -4 1 -26 -8 -50 -19 -32 -17 -39 -18 -28 -5
7 9 -12 0 -44 -19 -32 -19 -61 -32 -66 -30 -4 3 -10 1 -14 -5 -4 -6 -11 -8
-16 -4 -6 3 -16 -2 -24 -12 -7 -11 -17 -16 -21 -11 -4 4 -16 0 -26 -10 -10 -9
-18 -12 -18 -8 0 4 -8 1 -18 -8 -10 -9 -29 -18 -42 -20 -13 -2 -26 -9 -28 -15
-2 -7 -7 -10 -12 -7 -4 2 -18 -4 -30 -15 -12 -11 -26 -17 -31 -15 -4 3 -10 1
-14 -5 -4 -6 -11 -8 -16 -4 -5 3 -8 2 -7 -3 2 -4 0 -9 -5 -10 -4 -2 -21 -10
-37 -18 -16 -8 -31 -14 -33 -13 -1 2 -13 -7 -26 -19 -13 -12 -37 -25 -52 -28
-16 -4 -29 -11 -29 -16 0 -10 -61 -44 -72 -41 -5 1 -8 -5 -8 -13 0 -19 5 -19
49 4 67 36 216 95 235 93 11 0 28 4 38 9 22 12 52 20 91 24 15 2 33 7 40 12 7
5 19 9 27 8 8 -1 26 3 40 8 14 5 36 11 50 14 14 2 27 9 28 14 3 6 10 5 19 -3
12 -10 18 -9 29 7 8 11 14 13 14 6 0 -9 11 -6 33 8 19 11 36 18 40 15 3 -3 16
0 29 7 12 7 28 14 33 14 27 3 106 28 110 36 3 4 12 6 20 2 8 -3 15 -1 15 4 0
5 9 9 20 9 11 0 20 -5 20 -11 0 -5 4 -4 9 3 4 7 18 14 29 15 12 1 22 5 22 10
0 4 5 5 10 2 6 -3 10 -2 10 2 0 5 16 8 35 7 29 -2 170 33 215 53 8 3 19 5 23
4 5 -1 6 3 3 8 -4 5 -1 13 6 18 19 12 47 49 30 39 -30 -18 8 33 59 78 29 26
50 48 48 50 -2 1 -17 -2 -34 -7z"/>
<path d="M5060 9329 c-14 -4 -19 -7 -12 -8 6 -1 11 -7 10 -13 -2 -7 6 -13 17
-13 11 0 20 -6 20 -13 0 -7 25 -28 55 -47 30 -19 51 -35 45 -35 -5 0 4 -8 21
-19 24 -15 127 -125 196 -210 12 -15 13 -19 24 -83 6 -35 4 -38 -18 -38 -25 0
-114 27 -133 40 -5 4 -37 14 -70 24 -33 9 -76 24 -95 33 -19 9 -47 17 -62 18
-16 2 -38 9 -50 17 -36 23 -60 30 -52 15 5 -8 2 -8 -9 2 -9 7 -14 18 -10 25 3
6 3 8 -2 4 -4 -4 -17 -2 -29 4 -19 10 -20 10 -7 -6 21 -26 -2 -20 -117 30 -29
13 -50 19 -47 14 8 -12 -8 -13 -20 -1 -10 9 -65 28 -101 35 -10 3 -31 9 -46
15 -16 6 -28 8 -28 5 0 -2 -8 0 -18 5 -15 8 -79 19 -134 24 -10 1 -18 5 -18
10 0 4 -4 5 -10 2 -5 -3 -19 -1 -30 5 -14 7 -20 7 -20 0 0 -6 11 -16 25 -22
16 -7 24 -17 20 -26 -3 -9 0 -12 8 -9 8 3 33 -10 57 -29 46 -37 55 -41 44 -21
-4 6 5 1 19 -12 15 -14 27 -21 27 -18 0 4 18 -4 40 -18 22 -14 43 -25 48 -25
5 0 19 -11 31 -24 13 -14 31 -23 42 -21 11 2 25 -4 32 -16 6 -10 15 -19 20
-19 4 0 5 5 1 11 -14 23 34 -11 55 -38 16 -21 20 -23 15 -8 -5 18 -4 18 14 -3
14 -16 22 -18 26 -10 5 10 7 10 12 1 3 -7 11 -13 18 -13 6 0 37 -13 69 -30 31
-16 60 -28 63 -27 3 1 16 -8 29 -21 16 -16 25 -19 28 -10 3 8 6 5 6 -6 1 -11
4 -16 7 -13 4 4 20 -3 35 -14 16 -11 29 -17 29 -12 1 4 6 -1 13 -12 13 -21 47
-30 47 -12 0 6 7 2 15 -9 8 -10 15 -15 15 -10 0 4 9 -2 21 -15 11 -13 18 -18
14 -11 -3 6 -2 12 4 12 5 0 12 -6 14 -12 4 -10 8 -9 16 2 9 12 11 11 11 -9 0
-20 3 -22 12 -13 10 10 15 7 25 -10 11 -22 12 -22 13 -3 0 11 4 16 8 10 12
-17 52 -36 62 -30 6 4 13 -1 16 -10 5 -12 9 -13 14 -5 5 8 12 7 24 -5 10 -10
16 -12 16 -4 0 9 4 8 15 -1 12 -10 15 -9 15 6 0 16 2 17 10 4 9 -13 10 -13 11
0 0 10 3 8 9 -5 5 -11 9 -14 9 -6 1 10 4 11 14 2 10 -8 19 -6 35 9 25 23 36
26 29 6 -3 -8 -3 -17 0 -20 8 -8 34 21 32 36 -1 7 -1 22 0 33 1 17 3 18 11 5
7 -11 10 -5 11 25 1 38 2 39 8 10 6 -25 9 -19 15 38 5 37 12 67 15 67 4 0 13
10 20 23 12 22 66 36 55 13 -3 -6 1 -3 9 7 10 12 17 14 22 8 4 -8 12 -8 26 -1
15 9 19 7 19 -7 0 -14 2 -15 9 -4 5 7 13 11 19 7 6 -3 15 2 21 11 10 17 10 17
11 -2 0 -17 2 -17 10 -5 8 13 11 12 16 -6 5 -18 9 -20 29 -10 13 6 22 13 20
17 -2 3 2 6 11 6 9 0 13 -7 9 -21 -3 -12 -2 -15 1 -8 3 6 10 10 15 6 5 -3 9
-1 9 3 0 5 9 9 20 9 11 0 20 -4 20 -9 0 -5 7 -7 15 -3 8 3 15 1 15 -5 0 -6 4
-7 10 -4 5 3 20 8 32 10 12 3 26 10 31 17 5 8 6 2 3 -17 -5 -25 -4 -28 6 -14
15 18 48 21 48 5 0 -6 5 -3 11 7 6 9 14 15 18 12 5 -2 15 3 22 12 10 12 10 14
2 9 -15 -9 -17 3 -3 24 7 11 10 11 10 2 0 -7 5 -10 10 -7 6 3 10 1 10 -6 0 -8
3 -9 13 0 8 6 17 9 20 6 4 -3 5 -2 3 1 -8 11 37 100 70 137 19 20 34 40 34 45
0 4 -7 -1 -14 -10 -15 -20 -31 -25 -20 -6 4 7 3 8 -4 4 -6 -4 -9 -13 -6 -20 3
-7 -2 -16 -10 -19 -13 -5 -13 -1 0 35 19 53 18 58 -6 28 -11 -14 -18 -18 -14
-9 3 10 0 20 -5 24 -6 3 -9 11 -6 16 4 5 0 10 -7 10 -7 1 -24 3 -37 4 -13 1
-27 8 -31 15 -4 7 -12 10 -18 6 -6 -3 -13 3 -17 14 -4 11 -11 18 -16 15 -5 -4
-15 -3 -21 2 -7 4 -22 9 -33 10 -11 2 -21 8 -23 13 -2 6 -14 10 -26 10 -13 0
-26 3 -30 7 -4 4 -17 8 -29 9 -12 1 -36 7 -54 12 -17 6 -34 8 -37 5 -3 -3 -28
0 -55 7 -28 7 -88 13 -133 15 -83 3 -204 18 -288 35 -25 5 -58 10 -75 12 -16
2 -33 6 -36 11 -3 4 -39 8 -81 10 -42 1 -74 5 -71 9 2 4 -9 5 -24 2 -15 -3
-60 -1 -98 3 -39 5 -81 6 -95 2z m1350 -304 c0 -2 -10 -9 -22 -15 -22 -11 -22
-10 -4 4 21 17 26 19 26 11z m-53 -57 c-3 -8 -6 -5 -6 6 -1 11 2 17 5 13 3 -3
4 -12 1 -19z m14 -24 c-11 -15 -21 -24 -21 -20 0 12 33 57 37 52 3 -3 -4 -17
-16 -32z m12 -24 c-6 -21 -19 -33 -40 -36 -15 -3 -17 12 -3 21 6 3 10 0 10 -7
1 -7 8 -1 16 15 17 32 24 35 17 7z m-657 -128 c-8 -10 -16 -30 -18 -46 -3 -30
-25 -49 -25 -21 0 8 3 15 6 15 4 0 8 11 9 25 2 28 22 56 35 48 5 -3 2 -12 -7
-21z"/>
<path d="M4150 9249 c0 -5 5 -7 10 -4 6 3 10 8 10 11 0 2 -4 4 -10 4 -5 0 -10
-5 -10 -11z"/>
<path d="M2653 8867 c5 -13 3 -16 -6 -10 -22 14 -36 12 -30 -5 5 -14 2 -13
-17 3 l-23 20 13 -24 c12 -23 12 -23 -11 -7 -34 24 -46 20 -15 -5 35 -27 27
-35 -13 -14 -31 16 -41 9 -19 -13 16 -16 5 -15 -40 3 -40 16 -41 17 30 -37
l23 -18 -28 10 c-38 14 -47 13 -41 -4 4 -12 -1 -14 -22 -10 -28 5 -28 5 -10
-15 17 -19 17 -19 -5 -14 -17 5 -20 3 -14 -7 6 -10 4 -12 -7 -7 -24 9 -30 -4
-10 -19 15 -12 13 -13 -15 -8 -40 8 -43 -3 -7 -17 33 -12 28 -17 -27 -28 -32
-6 -36 -9 -16 -10 30 -1 38 -27 10 -34 -17 -4 -17 -5 0 -6 15 -1 14 -4 -5 -23
-13 -13 -26 -22 -30 -20 -5 1 -8 -4 -8 -12 0 -8 -8 -17 -17 -19 -17 -4 -17 -5
0 -6 21 -1 21 -4 2 -40 -8 -16 -11 -32 -7 -35 11 -12 -21 -26 -57 -26 -35 0
-35 -14 0 -16 44 -3 49 -5 49 -15 0 -5 -4 -8 -10 -4 -11 7 -50 -15 -50 -28 0
-5 7 -7 15 -4 8 4 17 2 20 -3 4 -6 0 -10 -7 -10 -8 0 -21 -9 -30 -19 -15 -18
-15 -20 10 -27 l27 -7 -24 -6 c-33 -9 -51 -38 -31 -51 12 -8 12 -10 -2 -15 -9
-4 -14 -13 -11 -21 3 -8 -1 -14 -8 -15 -8 0 -5 -4 6 -8 18 -7 15 -10 -20 -29
-22 -12 -32 -21 -23 -22 9 0 20 5 23 10 4 6 11 8 16 4 13 -7 2 -23 -25 -35
-18 -8 -18 -9 6 -4 15 3 30 1 33 -5 3 -5 -1 -10 -9 -10 -9 0 -16 -4 -16 -10 0
-5 -8 -10 -17 -10 -17 -1 -17 -1 0 -14 21 -16 23 -30 3 -23 -9 4 -13 1 -10 -6
2 -7 -8 -18 -23 -25 -19 -7 -20 -9 -5 -6 17 4 22 1 22 -14 0 -11 -6 -23 -12
-26 -7 -4 -2 -4 12 -2 25 5 25 5 -4 -19 -26 -21 -27 -23 -10 -28 18 -5 18 -5
0 -6 -16 -1 -17 -3 -5 -18 10 -11 10 -14 2 -9 -7 4 -23 0 -35 -9 l-23 -17 27
6 c15 3 30 2 33 -4 3 -5 0 -7 -7 -5 -9 4 -14 -2 -15 -16 -1 -15 2 -19 15 -15
14 5 14 4 -2 -8 -10 -8 -15 -19 -12 -24 3 -6 -9 -19 -27 -31 -22 -14 -26 -21
-14 -21 9 0 17 5 17 10 0 6 4 10 9 10 5 0 7 -9 4 -21 -3 -11 -11 -18 -18 -15
-8 3 -16 -2 -19 -10 -3 -8 0 -14 7 -14 7 -1 5 -6 -5 -14 -10 -7 -18 -17 -18
-22 0 -4 5 -3 12 4 14 14 28 16 28 4 0 -5 -18 -18 -40 -31 -46 -26 -54 -39
-10 -16 23 12 30 13 30 3 0 -7 -9 -19 -21 -26 -12 -7 -18 -16 -15 -19 3 -3 11
-2 19 3 7 5 1 -1 -13 -14 l-25 -23 30 11 30 10 -34 -28 c-20 -17 -30 -32 -23
-36 5 -3 13 0 15 6 4 10 6 10 6 1 1 -7 -10 -24 -24 -39 -23 -25 -24 -29 -11
-49 15 -23 12 -35 -8 -35 -6 0 -4 5 4 10 8 5 10 10 4 10 -18 0 -24 -12 -13
-26 8 -9 5 -11 -9 -7 -11 2 -23 -1 -28 -8 -5 -9 -2 -11 9 -6 10 4 17 2 17 -4
0 -7 12 -4 28 6 l27 18 -19 -22 c-11 -11 -26 -20 -34 -19 -9 2 -16 -7 -18 -21
-4 -23 -4 -23 22 -6 30 19 40 14 25 -12 -7 -12 -10 -13 -11 -4 0 11 -3 11 -15
1 -13 -11 -13 -15 -3 -21 10 -6 8 -12 -9 -24 -13 -9 -23 -21 -23 -27 0 -6 9
-3 20 7 11 10 20 14 20 8 0 -5 -18 -24 -40 -42 -46 -36 -54 -62 -12 -37 17 11
11 2 -18 -25 -29 -28 -35 -37 -17 -25 39 24 48 11 13 -19 -36 -31 -25 -33 16
-4 23 17 32 19 41 10 9 -10 9 -12 -3 -9 -10 2 -14 -3 -12 -16 3 -14 -1 -17
-13 -12 -9 3 -14 2 -10 -4 4 -6 -7 -18 -24 -28 -17 -9 -33 -23 -36 -31 -4 -11
-2 -11 8 -3 19 16 30 3 14 -17 -11 -14 -10 -14 6 -2 26 21 20 -2 -8 -29 -13
-12 -22 -26 -19 -31 2 -4 -3 -12 -13 -18 -16 -8 -14 -10 10 -16 l27 -7 -25
-24 c-27 -25 -35 -45 -10 -24 9 7 18 11 21 8 2 -3 -19 -27 -48 -53 -54 -49
-50 -52 9 -8 26 19 31 20 26 7 -5 -13 -3 -15 8 -10 8 4 -1 -6 -20 -22 -25 -21
-31 -31 -21 -37 8 -5 11 -4 7 2 -4 6 -1 13 7 16 30 12 25 -8 -11 -46 -32 -33
-33 -37 -10 -22 32 20 35 8 7 -27 -10 -14 -17 -28 -14 -30 3 -3 -14 -22 -37
-42 -23 -20 -39 -39 -36 -43 4 -3 7 -1 7 5 0 7 5 12 11 12 6 0 20 11 31 25 11
14 29 30 41 36 l22 12 -20 -24 c-12 -13 -27 -33 -35 -44 -15 -20 -15 -20 15
-1 30 19 30 19 15 0 -8 -10 -23 -25 -33 -32 -12 -9 -16 -21 -12 -34 4 -12 0
-28 -12 -41 -18 -21 -18 -21 2 -7 11 8 25 22 32 30 6 8 14 12 17 9 3 -3 -9
-21 -27 -40 -17 -19 -33 -43 -34 -53 -1 -15 3 -14 23 9 13 15 24 24 24 19 0
-14 -32 -57 -58 -78 -26 -21 -22 -36 5 -15 10 7 7 0 -7 -16 l-25 -29 29 18 29
19 -21 -31 c-30 -41 -28 -51 5 -21 l26 24 -22 -37 c-12 -21 -20 -38 -16 -38 3
0 1 -9 -5 -20 -8 -15 -18 -19 -33 -16 -12 3 -16 3 -9 0 10 -5 8 -12 -8 -29
-12 -13 -20 -30 -17 -37 3 -8 6 -6 6 6 1 12 6 16 16 13 8 -4 17 -1 21 5 4 7 3
8 -4 4 -7 -4 -12 -2 -12 4 0 7 6 10 13 7 6 -2 18 3 25 12 11 14 12 13 4 -4 -6
-11 -8 -33 -7 -48 2 -16 1 -26 -2 -23 -3 3 -19 -4 -35 -15 -16 -12 -27 -24
-24 -27 4 -3 -1 -14 -11 -24 -9 -10 -11 -18 -5 -18 6 0 12 6 15 13 2 6 8 9 12
4 5 -4 -2 -19 -16 -35 -23 -26 -23 -26 9 2 47 43 39 19 -10 -31 -23 -24 -37
-43 -31 -43 6 0 16 7 23 15 7 8 17 15 23 15 6 0 -1 -12 -15 -27 -20 -21 -23
-31 -14 -39 8 -9 17 -7 35 10 l24 21 -19 -27 c-10 -15 -26 -29 -34 -31 -8 -2
-23 -19 -33 -38 l-19 -34 26 28 c14 15 27 27 27 25 6 -14 4 -46 -2 -42 -5 3
-26 -7 -46 -21 -21 -14 -33 -25 -28 -25 6 0 19 7 29 15 26 20 29 19 45 -7 10
-18 11 -20 0 -10 -18 16 -29 15 -29 -4 0 -9 -5 -12 -12 -8 -6 4 -8 3 -4 -4 3
-6 -4 -19 -17 -29 -13 -10 -27 -25 -32 -33 -5 -9 0 -8 13 4 24 21 29 12 10
-14 -7 -9 2 -1 20 19 17 19 34 32 37 29 8 -7 -66 -89 -75 -83 -5 3 -12 0 -16
-6 -5 -8 -3 -9 6 -4 10 6 12 3 7 -11 -6 -15 -3 -14 13 5 11 13 20 20 20 17 0
-4 12 6 26 21 15 15 10 7 -9 -18 -20 -26 -33 -50 -29 -54 4 -5 2 -5 -4 -2 -16
9 -59 -39 -44 -48 8 -5 4 -15 -12 -33 -18 -21 -19 -23 -3 -12 29 22 50 42 51
52 1 4 2 11 3 16 0 4 10 13 20 19 17 10 18 9 14 -10 -3 -12 -17 -34 -31 -49
-31 -34 -19 -37 17 -6 21 18 20 16 -3 -10 -20 -21 -32 -28 -37 -21 -7 13 -59
-22 -114 -76 -24 -23 -25 -26 -5 -12 52 35 58 37 63 22 3 -7 -3 -25 -14 -39
-14 -18 -16 -24 -5 -20 8 3 17 12 20 20 3 9 11 12 17 8 7 -4 9 -3 6 3 -3 5 7
25 23 44 16 19 29 28 30 22 0 -7 -4 -13 -10 -13 -5 0 -10 -7 -10 -15 0 -8 -4
-15 -10 -15 -5 0 -10 -7 -10 -15 0 -9 -7 -18 -15 -21 -9 -4 -14 -14 -13 -23 2
-10 -3 -15 -14 -13 -15 2 -32 -13 -33 -29 0 -4 -20 -35 -45 -69 -46 -63 -53
-80 -37 -91 11 -8 0 -29 -14 -29 -6 0 -7 6 -3 13 6 9 5 9 -8 0 -8 -7 -18 -10
-22 -6 -4 4 -4 0 -1 -9 4 -10 -4 -26 -20 -42 -14 -14 -23 -26 -20 -26 3 0 -6
-12 -20 -27 -14 -15 -25 -31 -25 -36 0 -4 -10 -18 -21 -30 l-21 -22 7 25 c7
22 6 23 -9 11 -9 -7 -1 11 19 40 19 30 35 59 35 64 1 6 17 27 37 47 20 21 34
40 31 43 -2 3 -24 -19 -48 -49 -24 -30 -47 -53 -52 -50 -9 6 1 20 59 81 23 25
47 42 52 38 6 -3 8 0 5 8 -3 8 10 27 31 46 20 17 32 31 27 31 -6 0 -26 -18
-46 -40 -20 -22 -39 -40 -43 -40 -5 0 -29 -23 -55 -51 -36 -40 -47 -47 -45
-31 0 11 5 18 9 16 4 -3 8 5 8 17 0 18 -2 19 -15 9 -13 -11 -14 -10 -9 4 3 9
10 16 15 16 5 0 9 9 9 20 0 11 4 20 10 20 5 0 7 -6 4 -13 -3 -8 2 -14 10 -14
11 0 12 5 4 23 -9 19 -6 29 16 58 16 21 21 33 12 30 -8 -3 -18 -14 -21 -23 -3
-10 -16 -28 -29 -40 l-24 -23 -7 21 c-7 22 0 41 16 41 6 0 6 -9 -1 -22 -10
-21 -10 -22 4 -5 8 11 12 26 9 35 -4 10 -3 14 2 10 4 -4 14 -1 21 7 22 22 16
25 -17 8 -23 -11 -34 -12 -42 -4 -6 6 -7 12 -1 12 5 1 16 2 24 3 8 0 19 11 25
22 6 12 17 30 25 40 9 11 10 15 3 10 -7 -4 -13 -3 -13 2 0 5 9 12 20 15 11 3
20 10 20 16 0 7 -10 5 -26 -5 -21 -14 -27 -15 -34 -4 -4 7 -14 9 -21 6 -8 -4
-5 1 6 11 36 33 58 74 46 86 -8 8 -11 6 -11 -6 0 -9 -4 -17 -10 -17 -14 0 0
31 29 64 l26 30 -26 -16 c-21 -13 -26 -14 -26 -3 0 8 3 12 7 10 4 -3 16 5 26
18 10 12 12 16 4 10 -19 -17 -30 -16 -30 2 0 8 7 15 17 15 9 0 13 3 10 6 -3 4
5 15 18 26 14 11 25 25 25 31 0 8 -3 8 -8 2 -7 -10 -57 -45 -65 -45 -1 0 -3 9
-3 19 0 11 3 18 7 15 4 -2 18 10 30 28 13 17 17 28 10 24 -22 -14 -5 55 19 71
17 12 19 18 9 29 -8 10 -15 12 -23 4 -15 -15 -26 -12 -20 5 3 8 9 14 12 13 19
-2 30 4 36 18 5 14 4 15 -9 4 -13 -11 -14 -10 -9 6 4 10 16 29 27 42 28 30 10
28 -22 -2 l-26 -25 -1 27 c-1 15 1 21 3 14 6 -15 23 -6 19 11 -1 7 -1 9 1 5 3
-5 9 -8 14 -8 6 0 7 5 3 12 -4 7 8 25 32 46 21 19 32 30 23 24 -9 -7 -19 -9
-22 -5 -4 3 -7 1 -7 -5 0 -6 -10 -17 -22 -23 -13 -6 -20 -8 -16 -4 4 5 3 14
-3 22 -9 9 -8 13 0 14 11 2 25 5 39 9 4 1 11 2 15 1 5 -1 6 3 2 9 -4 6 -1 19
7 28 11 15 11 15 -3 5 -22 -18 -33 -3 -11 14 23 19 -7 5 -33 -16 -11 -8 -15
-9 -8 -2 6 7 9 20 6 29 -5 11 -2 13 6 7 10 -6 11 -3 2 14 -10 17 -9 20 4 15 9
-4 15 -1 15 7 0 7 15 27 33 43 l32 29 -37 -21 c-21 -12 -38 -17 -38 -12 0 6 5
10 10 10 6 0 10 5 10 11 0 5 -5 7 -12 3 -7 -4 -8 -3 -4 5 4 6 11 9 15 6 5 -2
17 5 27 18 16 18 16 19 2 8 -16 -12 -18 -11 -18 3 0 19 -11 21 -28 4 -9 -9
-12 -9 -12 0 0 7 4 12 8 12 5 0 17 7 28 15 19 15 19 16 -1 13 -13 -2 -19 2
-17 11 2 8 -3 11 -13 8 -21 -9 -19 -5 16 29 31 29 32 29 15 2 -11 -17 -13 -28
-7 -33 7 -3 11 2 11 14 0 11 5 23 10 26 8 5 7 11 0 20 -9 10 -9 19 0 32 9 15
10 14 4 -7 l-6 -25 20 21 c10 11 25 31 32 45 13 23 12 24 -7 7 -25 -22 -40
-23 -22 -2 12 14 11 16 -6 12 -11 -2 -19 -10 -17 -16 1 -7 -2 -12 -8 -12 -13
0 -13 6 0 31 8 14 17 18 34 13 17 -4 25 0 30 13 6 14 5 16 -5 6 -20 -20 -31
-15 -19 7 7 14 7 20 0 20 -5 0 -10 -7 -10 -15 0 -9 -6 -12 -15 -9 -13 5 -10
11 12 33 16 15 37 40 47 56 19 30 19 30 0 15 -10 -7 -25 -21 -31 -29 -9 -10
-13 -11 -13 -2 0 6 12 23 26 36 15 14 21 25 14 25 -7 0 -1 9 14 21 14 11 26
25 26 32 0 6 -13 -2 -30 -18 -16 -15 -28 -31 -27 -34 1 -3 -2 -7 -6 -8 -5 -1
-15 -10 -23 -20 -7 -10 -14 -13 -14 -7 0 6 7 17 15 24 17 14 21 35 4 24 -8 -5
-8 -1 0 14 14 26 14 45 1 37 -6 -3 -7 1 -3 10 4 11 8 13 12 6 5 -8 13 -6 27 5
17 14 17 15 1 10 -15 -5 -16 -2 -7 14 16 30 12 34 -10 9 l-21 -24 16 33 c8 17
22 32 30 32 8 0 15 5 15 10 0 7 -6 7 -20 0 -14 -7 -20 -7 -20 0 0 9 17 14 48
13 6 -1 12 3 12 8 0 5 -5 9 -11 9 -5 0 -7 5 -4 10 4 6 11 7 17 4 5 -4 3 5 -6
19 -16 24 -16 26 6 41 12 9 19 16 14 16 -4 0 -21 -9 -37 -21 -33 -23 -37 -6
-6 23 13 12 15 18 6 24 -7 4 -18 -1 -26 -12 -8 -10 -19 -18 -25 -16 -6 2 -8
-3 -5 -11 3 -8 1 -20 -5 -28 -8 -11 -9 -11 -5 3 3 9 1 19 -6 21 -8 3 -5 12 9
28 12 13 25 33 28 44 3 11 26 41 51 68 45 48 51 65 8 25 -22 -21 -34 -13 -12
9 6 6 9 19 7 29 -3 16 -7 14 -20 -11 -8 -16 -13 -35 -11 -42 2 -7 -1 -18 -7
-25 -6 -7 -17 -22 -25 -33 -14 -20 -14 -20 -12 2 0 12 5 19 9 17 4 -3 8 0 8 5
0 6 -5 11 -11 11 -5 0 -7 5 -3 11 4 8 9 7 16 -2 8 -11 9 -11 5 1 -2 8 2 28 10
43 26 51 6 40 -32 -17 -20 -31 -39 -56 -42 -56 -6 0 6 21 26 43 13 16 13 20 1
29 -13 8 -12 9 2 5 9 -3 19 1 22 9 8 22 9 22 -19 19 -14 -2 -23 1 -20 5 3 5
12 7 20 3 11 -4 13 -1 9 11 -3 9 -1 16 4 16 6 0 12 -7 14 -16 2 -14 8 -13 35
10 18 15 35 26 38 26 4 -1 10 1 13 5 4 4 0 5 -8 3 -8 -1 -14 3 -12 10 1 6 -3
12 -9 12 -6 0 -9 -7 -5 -15 6 -17 -9 -21 -20 -4 -3 6 -2 15 4 21 6 6 8 16 6
23 -3 7 2 15 12 19 14 5 15 4 5 -8 -9 -11 -8 -15 3 -19 8 -3 16 2 19 13 3 11
1 20 -5 22 -6 2 -5 14 2 32 6 18 15 26 25 23 9 -4 12 -1 8 9 -5 13 -9 12 -27
-5 -12 -12 -30 -21 -40 -21 -9 0 -15 -4 -12 -8 6 -10 -54 -51 -84 -57 l-23 -4
23 24 c13 13 26 22 30 20 10 -6 42 30 33 38 -3 4 1 7 11 7 9 0 15 4 11 10 -3
5 -12 7 -20 3 -18 -6 -19 8 -2 27 10 12 9 12 -6 0 -10 -7 -15 -20 -12 -28 3
-10 0 -12 -10 -9 -8 4 -17 1 -21 -5 -4 -6 -3 -9 2 -6 5 3 15 0 21 -8 8 -8 9
-15 3 -19 -6 -3 -10 -1 -10 6 0 6 -8 9 -20 6 -10 -3 -21 0 -24 7 -3 6 -3 1 0
-12 4 -18 1 -25 -15 -29 -12 -3 -21 -9 -21 -14 0 -5 -6 -9 -12 -9 -7 1 -2 10
11 20 19 17 20 20 6 20 -17 0 -17 1 -2 18 11 12 13 22 7 28 -9 9 3 20 95 90
11 9 -2 4 -29 -10 -59 -31 -67 -32 -63 -6 2 12 20 32 40 46 45 30 47 36 7 21
-16 -6 -30 -15 -30 -19 0 -4 -5 -8 -11 -8 -5 0 -7 6 -3 13 5 8 3 8 -9 -2 -9
-7 -15 -17 -12 -21 2 -4 -7 -13 -20 -20 -14 -7 -25 -17 -25 -22 0 -5 -4 -6
-10 -3 -5 3 -10 2 -10 -4 0 -6 -7 -7 -17 -4 -11 4 -14 3 -9 -5 4 -7 2 -12 -3
-12 -6 0 -11 7 -11 16 0 12 -6 15 -22 11 -20 -5 -20 -3 6 18 17 13 35 21 40
17 7 -4 4 -8 -7 -10 -9 -2 -17 -8 -17 -13 0 -17 25 -9 59 21 28 25 31 31 17
36 -15 6 -15 9 -3 28 36 56 27 72 -17 31 -15 -14 -36 -25 -47 -25 -10 0 -19
-4 -19 -9 0 -8 -28 -19 -68 -27 -8 -1 -22 -10 -32 -19 -12 -11 -26 -14 -44 -9
-26 6 -26 6 -6 24 11 9 17 20 13 24 -3 3 7 6 23 6 l28 0 -22 -16 c-12 -8 -22
-21 -22 -27 0 -8 3 -8 8 -2 4 6 17 19 30 30 18 15 25 16 31 6 6 -9 11 -10 15
-2 4 6 3 11 -3 11 -6 0 -8 8 -5 18 4 10 3 13 -3 6 -4 -6 -23 -11 -40 -12 -36
-1 -77 -24 -65 -37 4 -4 -5 -5 -19 -1 -19 4 -29 1 -33 -9 -3 -10 1 -15 11 -15
18 0 10 -13 -10 -16 -7 -1 -19 -5 -27 -8 -11 -5 -16 0 -17 15 -1 13 5 23 17
26 11 3 18 9 15 13 -2 4 6 7 18 6 12 0 36 12 52 28 25 24 26 27 7 17 -13 -7
-30 -10 -37 -7 -7 2 -16 -2 -19 -10 -3 -8 -12 -14 -21 -14 -8 0 -15 -4 -15
-10 0 -5 -8 -10 -18 -10 -10 0 -34 -13 -52 -30 -37 -33 -34 -38 10 -15 40 21
38 13 -7 -21 -20 -15 -33 -22 -28 -14 6 10 4 12 -9 7 -10 -4 -15 -3 -11 3 3 6
-1 10 -10 10 -11 0 -15 -5 -12 -15 4 -8 1 -17 -5 -21 -6 -4 -8 -3 -4 4 3 5 0
12 -6 15 -9 3 -7 9 7 20 11 8 24 13 30 10 5 -4 7 -3 3 2 -10 11 -78 14 -84 4
-3 -5 2 -6 10 -3 22 8 20 -12 -1 -22 -10 -4 -20 -8 -23 -8 -3 -1 -19 -13 -35
-28 -41 -39 -44 -26 -3 15 19 18 32 39 30 45 -2 7 10 15 27 18 17 4 29 10 26
14 -2 4 8 13 23 19 24 12 25 14 9 23 -22 12 -67 2 -67 -14 0 -9 3 -9 12 0 14
14 38 16 38 4 0 -11 -73 -52 -91 -52 -9 1 -5 8 10 20 26 22 15 28 -13 7 -17
-13 -13 -52 5 -41 5 3 9 3 9 0 0 -3 -9 -10 -20 -16 -16 -9 -18 -8 -14 5 5 11
2 13 -10 9 -9 -3 -16 -10 -16 -15 0 -5 -18 -17 -40 -26 -22 -10 -40 -21 -40
-25 0 -5 -6 -8 -14 -8 -8 0 -22 -10 -30 -22 -9 -12 -18 -20 -20 -17 -9 9 44
59 70 65 19 5 22 9 13 15 -11 6 -10 12 4 27 9 10 17 23 17 28 0 5 -4 4 -8 -2
-4 -6 -20 -19 -37 -28 -16 -10 -22 -15 -13 -12 11 3 18 0 18 -9 0 -16 -61 -31
-87 -21 -10 4 -14 4 -10 0 4 -4 1 -14 -6 -22 -10 -13 -9 -14 10 -4 30 16 38
15 22 -4 -8 -9 -21 -13 -35 -10 -14 4 -24 1 -28 -9 -3 -8 -12 -15 -20 -15 -7
0 -31 -15 -51 -33 -35 -31 -36 -34 -14 -32 13 1 23 8 21 14 -1 7 2 10 7 7 5
-4 13 0 18 7 4 8 18 19 30 26 19 10 22 9 17 -4 -4 -8 -9 -15 -13 -15 -12 -1
-54 -41 -48 -47 4 -3 13 0 21 6 12 10 14 9 12 -5 -3 -22 -44 -26 -56 -5 -7 12
-9 12 -10 2 0 -7 -6 -11 -13 -8 -8 3 -14 -3 -14 -14 -1 -11 5 -19 13 -19 8 0
12 -5 9 -11 -4 -6 -13 -8 -21 -5 -7 3 -16 0 -20 -6 -5 -7 -2 -8 6 -3 9 6 10 2
5 -15 -6 -19 -4 -22 9 -17 11 4 15 3 11 -4 -4 -6 -13 -8 -21 -5 -7 3 -16 1
-19 -4 -4 -6 2 -10 12 -11 11 0 13 -3 5 -6 -6 -2 -9 -9 -6 -14 3 -6 0 -17 -8
-26 -7 -9 -8 -14 -2 -10 7 4 14 -3 17 -19 3 -16 -1 -28 -9 -31 -8 -3 -14 -12
-14 -20 0 -8 5 -11 10 -8 13 8 13 -11 -1 -37 -8 -15 -8 -19 0 -14 7 4 11 -1
11 -13 0 -12 5 -21 10 -21 7 0 7 -6 0 -20 -7 -14 -7 -20 0 -20 6 0 8 -15 4
-42 -6 -33 -4 -39 6 -33 10 6 12 4 7 -8 -4 -10 -2 -17 5 -17 7 0 7 -4 -1 -14
-7 -8 -8 -17 -3 -20 5 -3 7 -18 4 -32 -4 -20 -2 -25 8 -19 9 5 10 2 5 -15 -5
-14 -3 -20 3 -16 6 3 10 -8 10 -28 0 -18 6 -44 13 -57 7 -13 13 -35 14 -49 0
-14 4 -36 9 -49 6 -19 10 -21 18 -10 7 10 8 6 4 -13 -4 -17 -2 -28 4 -28 7 0
9 -9 5 -22 -5 -18 -4 -20 4 -8 9 13 11 12 11 -3 0 -10 4 -15 10 -12 7 4 7 -2
0 -19 -7 -19 -6 -29 5 -40 8 -8 15 -20 15 -26 0 -6 4 -8 10 -5 6 3 7 -1 4 -9
-3 -9 -1 -16 6 -16 6 0 9 -4 6 -9 -3 -5 -3 -24 1 -41 6 -30 7 -31 19 -15 12
16 13 14 9 -19 -3 -22 -1 -35 4 -31 12 7 23 -27 15 -48 -3 -9 3 -24 15 -36 12
-12 21 -23 21 -26 0 -3 0 -10 0 -16 0 -5 4 -8 8 -5 5 3 7 -9 5 -27 -4 -31 -4
-31 12 -12 l17 20 -2 -20 c-4 -36 0 -56 9 -51 4 3 6 -6 3 -19 -2 -15 0 -25 7
-25 7 0 9 -4 6 -10 -3 -5 -2 -10 3 -10 4 0 14 -16 22 -35 9 -23 17 -31 24 -26
8 7 11 1 12 -17 0 -33 44 -133 55 -126 4 2 12 -11 17 -30 9 -31 45 -88 80
-124 6 -7 12 -20 12 -28 0 -23 31 -65 43 -57 5 3 7 1 3 -5 -6 -10 22 -84 35
-90 4 -2 4 -12 1 -24 -3 -14 -1 -19 6 -14 7 4 12 1 12 -9 0 -9 5 -13 11 -9 8
5 8 1 0 -14 -7 -13 -7 -23 -1 -27 5 -3 7 -12 3 -20 -4 -11 -1 -13 12 -9 15 6
16 4 5 -17 -12 -21 -12 -23 2 -11 16 12 34 2 21 -12 -9 -9 -10 -56 -1 -56 4 0
5 -8 2 -17 -5 -15 -3 -15 11 2 15 19 16 19 10 -13 -4 -24 -2 -32 6 -26 8 5 9
3 4 -7 -14 -21 -15 -60 -3 -53 8 5 9 1 5 -10 -6 -14 -3 -17 9 -12 14 5 15 4 5
-8 -14 -16 -5 -60 10 -51 5 4 5 -5 -1 -20 -7 -19 -7 -24 2 -19 8 5 9 2 5 -10
-4 -10 -3 -15 3 -11 10 6 14 -7 10 -34 -3 -24 10 -62 20 -56 14 9 12 -9 -2
-23 -9 -9 -8 -13 4 -17 10 -4 13 -15 10 -32 -3 -18 -1 -24 6 -19 8 5 10 2 6
-8 -3 -9 -2 -16 4 -16 5 0 9 -8 8 -17 0 -10 5 -17 12 -16 6 2 12 -6 12 -17 0
-11 5 -20 10 -20 6 0 10 -6 10 -13 0 -13 54 -67 65 -67 3 0 15 -9 27 -20 41
-38 104 -19 157 48 16 22 57 91 91 154 33 63 70 124 82 134 12 10 18 13 14 7
-4 -7 -3 -13 2 -13 4 0 14 -81 20 -180 15 -218 55 -425 97 -507 8 -15 11 -31
8 -36 -4 -6 0 -8 8 -5 12 5 14 -1 11 -26 -3 -24 -1 -28 7 -16 6 8 11 11 11 5
0 -5 5 -3 11 5 9 13 10 12 5 -2 -3 -10 -9 -26 -13 -35 -16 -41 38 31 58 77 6
14 15 33 20 43 12 23 -7 23 -20 0 -8 -14 -10 -15 -11 -3 0 8 14 23 31 33 18
10 29 21 25 25 -4 3 -11 0 -15 -7 -5 -8 -14 -10 -21 -6 -9 5 -11 4 -6 -3 4 -7
2 -10 -7 -6 -7 2 -14 11 -14 19 0 8 3 12 7 10 4 -2 12 7 19 21 13 30 14 45 1
24 -8 -12 -10 -11 -10 5 0 12 6 27 13 34 10 11 9 13 -5 8 -12 -4 -15 -2 -11 9
3 7 8 14 12 14 3 0 12 9 18 20 11 16 10 18 -4 13 -12 -5 -14 -3 -8 8 8 12 6
12 -8 0 -22 -17 -22 -3 0 21 9 10 12 18 6 18 -15 0 -12 28 4 34 10 4 11 10 3
25 -6 12 -6 22 -1 25 5 4 8 14 6 24 -1 9 2 23 8 30 6 8 6 12 -2 12 -7 0 -9 5
-5 12 5 7 9 21 9 31 1 10 8 23 16 28 11 7 10 9 -5 9 -18 0 -18 1 -3 18 10 10
14 22 10 25 -3 4 -1 7 7 7 10 0 10 3 0 16 -11 12 -11 15 0 12 11 -2 14 6 11
30 -1 19 2 32 9 32 7 0 10 7 6 15 -3 8 -1 15 4 15 5 0 9 8 8 18 -3 23 23 105
37 114 6 5 6 8 -2 8 -7 0 -10 7 -7 15 4 8 12 15 20 15 8 0 11 6 8 15 -4 8 -1
15 6 15 10 0 10 3 0 15 -9 10 -9 15 -1 15 6 0 10 3 10 7 -3 21 3 31 21 36 11
3 20 13 20 22 0 28 39 7 110 -58 107 -98 264 -165 475 -203 143 -26 476 -26
595 -1 110 24 231 63 300 97 65 33 204 147 187 153 -7 3 0 8 16 12 29 8 35 20
15 28 -7 3 0 6 15 6 16 1 26 5 22 10 -3 5 7 11 22 13 19 2 28 9 27 20 -1 12 6
15 30 13 17 -2 25 -1 19 2 -22 8 -14 23 13 23 14 0 23 4 19 10 -3 6 3 10 15
10 12 0 18 4 15 10 -4 6 -3 10 2 9 23 -4 53 2 49 10 -3 5 14 12 39 16 25 3 43
11 40 16 -4 5 7 12 24 15 17 4 29 10 26 14 -2 4 7 5 22 2 18 -3 24 -1 19 7 -7
11 10 15 48 11 11 -1 16 3 11 10 -5 7 2 9 21 4 23 -6 26 -4 20 11 -5 15 -4 16
8 6 11 -10 24 -10 55 0 23 7 41 16 41 21 0 5 5 6 11 2 6 -3 21 -2 32 4 12 5
51 18 87 28 36 10 67 21 70 24 3 3 21 6 40 8 19 1 37 7 40 11 3 5 16 9 30 9
14 0 50 4 80 8 30 4 74 8 97 8 24 1 43 4 43 7 0 4 14 5 30 3 17 -2 30 1 30 7
0 7 5 8 13 2 14 -10 148 -10 165 1 7 4 12 3 12 -3 0 -6 25 -10 58 -10 31 0 77
-2 102 -6 25 -3 60 -7 78 -8 17 -1 32 -5 32 -8 0 -4 23 -9 50 -13 28 -4 50
-10 50 -15 0 -5 12 -7 27 -5 15 1 30 -2 34 -7 3 -6 17 -11 30 -12 13 0 27 -5
30 -9 3 -4 17 -9 32 -10 15 -1 27 -6 27 -11 0 -5 7 -7 15 -3 8 3 20 -1 27 -8
7 -7 19 -11 26 -8 7 2 19 -1 27 -8 8 -6 19 -9 25 -5 5 3 10 1 10 -6 0 -7 11
-10 30 -7 17 3 30 1 30 -3 0 -5 7 -6 15 -3 8 4 15 2 15 -4 0 -5 18 -12 40 -16
22 -3 40 -10 40 -14 0 -5 10 -8 23 -8 13 1 21 -4 19 -12 -1 -7 3 -12 10 -11
20 3 49 -12 42 -22 -3 -5 9 -6 26 -3 26 6 29 4 24 -11 -5 -13 -2 -16 12 -13
10 2 27 -4 37 -13 11 -10 27 -14 39 -11 14 3 19 1 14 -6 -4 -7 -3 -12 2 -12 4
0 17 -8 28 -17 10 -10 33 -25 49 -33 17 -8 36 -23 43 -32 7 -10 17 -18 21 -18
12 0 109 -99 103 -105 -3 -3 1 -5 10 -5 33 0 77 -58 46 -61 -7 -1 -2 -5 12 -9
21 -7 22 -8 5 -9 -18 -2 -19 -2 -3 -12 12 -7 24 -6 38 1 13 7 20 7 20 1 0 -6
6 -9 13 -7 6 1 9 1 5 -1 -14 -8 -8 -21 10 -26 9 -2 5 -3 -9 -1 -15 2 -40 6
-55 10 -27 7 -28 6 -12 -10 10 -9 34 -20 54 -23 24 -4 31 -9 22 -14 -10 -7
-10 -9 2 -9 8 -1 31 -3 51 -6 24 -3 40 -1 45 7 5 8 3 10 -7 4 -12 -8 -12 -6 0
8 9 12 10 17 2 17 -7 0 -9 5 -5 11 5 8 9 8 14 -1 4 -6 10 -11 14 -11 18 3 20
0 6 -9 -10 -7 -11 -10 -2 -10 7 0 15 7 18 15 4 8 11 12 16 9 6 -4 22 -8 37 -9
33 -3 130 -16 156 -21 58 -12 492 -3 561 11 11 3 35 0 52 -5 23 -6 32 -5 32 3
0 8 3 8 12 -1 7 -7 28 -12 48 -12 28 0 32 3 20 11 -12 9 -11 10 5 4 11 -4 40
-10 65 -15 49 -8 105 -29 80 -29 -8 0 -34 4 -57 8 -24 5 -43 4 -43 0 0 -5 16
-9 35 -9 19 0 35 -4 35 -9 0 -5 8 -11 18 -14 9 -2 -3 -2 -28 0 l-45 4 28 -16
c34 -19 34 -24 2 -17 -31 6 -33 -11 -2 -26 19 -10 13 -11 -35 -9 -67 2 -67 -8
-1 -18 l48 -8 -33 -10 c-27 -8 -36 -7 -43 4 -5 8 -9 9 -9 3 0 -11 -15 -14 -57
-14 -25 0 -31 -15 -10 -23 9 -4 9 -6 -1 -6 -7 -1 -10 -6 -6 -12 5 -8 1 -8 -14
0 -26 14 -42 14 -42 0 0 -5 4 -8 9 -5 4 3 17 -1 27 -9 18 -14 18 -14 -1 -10
-43 9 -255 11 -255 3 0 -6 6 -8 13 -5 6 2 31 -4 54 -14 22 -10 44 -16 47 -13
3 2 4 1 1 -3 -7 -9 -45 -11 -39 -2 2 4 -9 7 -26 7 -17 -1 -34 -7 -38 -14 -5
-9 -12 -10 -22 -4 -12 8 -12 10 4 10 11 0 16 3 13 6 -4 4 -46 8 -95 9 -48 1
-93 4 -99 8 -6 4 -32 8 -59 9 -42 1 -122 28 -85 28 8 0 12 3 8 6 -3 3 -20 -1
-38 -10 l-33 -16 24 27 c14 16 18 22 10 16 -8 -7 -23 -13 -33 -13 -16 0 -17 3
-7 15 8 9 9 15 2 15 -6 0 -13 -4 -16 -9 -8 -12 -61 2 -61 16 0 6 -2 14 -5 17
-5 4 -49 13 -77 15 -7 1 -13 6 -13 11 0 6 11 8 25 6 33 -6 32 0 -4 19 -21 10
-32 12 -37 4 -4 -7 -9 -7 -13 -2 -3 5 -15 15 -26 21 -25 14 -1 16 26 2 15 -9
19 -7 19 5 0 9 -4 14 -8 11 -5 -3 -37 4 -72 15 -77 24 -154 34 -145 19 3 -6
-3 -10 -17 -11 -21 -1 -21 -1 5 -11 29 -10 35 -23 15 -32 -7 -3 0 -2 17 1 28
6 29 5 13 -10 -9 -9 -24 -17 -32 -17 -22 0 -20 -18 2 -22 9 -2 22 3 28 11 9
11 12 12 19 1 5 -9 4 -11 -3 -6 -7 4 -12 1 -12 -7 0 -18 -33 -33 -38 -18 -2 6
-8 9 -13 5 -5 -3 -19 -7 -30 -9 -12 -3 -24 -7 -28 -11 -3 -4 8 -4 26 -1 18 4
35 2 38 -3 3 -6 -2 -11 -12 -11 -10 -1 -4 -5 12 -9 l30 -8 -35 -2 c-19 -1 -44
-6 -55 -11 -18 -8 -18 -9 5 -8 14 1 39 0 55 -1 l30 -2 -32 -9 c-18 -5 -33 -12
-33 -15 0 -3 9 -3 19 1 32 10 32 -10 0 -22 -16 -6 -29 -7 -29 -2 0 13 -57 10
-115 -6 -27 -7 -45 -14 -40 -15 20 -4 60 2 77 11 10 5 30 6 45 3 l28 -7 -30
-13 c-36 -16 -58 -18 -50 -4 4 6 -1 7 -11 3 -16 -6 -16 -7 0 -18 15 -12 15
-13 0 -19 -24 -9 -64 -7 -64 4 0 5 6 7 14 4 8 -3 17 -1 21 5 5 9 -14 14 -41
10 -4 0 -10 4 -14 11 -4 6 -17 12 -29 13 -21 1 -21 2 -5 14 16 12 14 13 -17
13 l-34 1 25 14 25 15 -26 -6 c-15 -3 -30 -1 -33 5 -4 6 -17 11 -29 11 -20 0
-20 0 -1 15 18 14 18 14 0 15 -10 0 -58 37 -105 83 -48 45 -113 96 -146 114
-158 84 -424 140 -773 164 -209 15 -454 1 -661 -37 -399 -73 -556 -157 -650
-347 -123 -251 -113 -590 25 -824 25 -44 99 -133 186 -225 25 -26 43 -50 40
-53 -5 -5 14 -7 23 -2 7 4 34 -37 28 -45 -2 -5 2 -11 11 -14 8 -3 12 -12 9
-21 -5 -12 -1 -14 18 -9 13 3 18 3 11 0 -6 -3 -12 -10 -12 -15 0 -6 6 -7 13
-3 8 5 8 2 -2 -9 -15 -19 -1 -23 17 -5 9 9 12 7 12 -10 0 -12 -4 -22 -8 -22
-5 0 -17 -15 -27 -34 -14 -26 -21 -31 -31 -22 -6 6 -10 14 -7 19 9 14 -5 7
-18 -11 -7 -9 -10 -14 -5 -10 11 9 35 -14 29 -27 -2 -5 7 4 21 20 14 17 26 34
26 38 0 5 5 5 12 1 6 -4 8 -3 4 4 -3 6 -2 13 3 16 15 9 25 -14 12 -27 -6 -6
-11 -16 -11 -22 0 -5 9 1 20 15 17 20 19 21 14 5 -7 -21 -32 -45 -47 -45 -4 0
-5 6 -1 13 5 6 -7 0 -25 -16 -18 -15 -36 -27 -41 -27 -5 0 -12 -9 -15 -20 -3
-11 -11 -20 -16 -20 -6 0 -1 13 10 29 23 32 30 68 7 39 -7 -10 -16 -14 -20
-10 -4 4 -7 2 -6 -3 4 -20 0 -35 -11 -35 -5 0 -7 6 -3 13 3 6 -6 -1 -20 -18
-24 -26 -25 -27 -14 -5 7 14 18 32 23 41 6 8 -2 3 -16 -11 -14 -15 -34 -30
-45 -34 -15 -6 -14 -3 5 18 15 16 19 26 12 26 -11 0 -11 4 0 18 13 15 12 16
-3 3 -10 -7 -16 -17 -13 -21 3 -5 -8 -18 -24 -29 -26 -19 -30 -19 -35 -4 -4
10 5 31 25 57 18 23 -1 7 -42 -35 -41 -42 -65 -65 -55 -52 15 17 17 26 8 35
-8 8 -15 8 -27 -2 -30 -25 -15 4 18 33 27 24 25 24 -12 -4 -58 -44 -85 -47
-41 -5 19 18 38 31 41 29 4 -1 10 4 13 13 6 17 -6 12 -37 -14 -9 -8 -17 -11
-17 -6 0 5 -4 3 -9 -5 -5 -8 -17 -16 -26 -17 -14 -2 -13 3 6 24 18 20 19 23 4
11 -40 -31 -91 -16 -64 19 7 9 -2 2 -20 -15 -18 -18 -37 -33 -42 -33 -15 0
-10 20 6 26 8 4 15 10 15 16 0 5 -13 0 -30 -12 -33 -23 -40 -17 -13 12 16 18
16 18 -8 10 -13 -5 -24 -14 -24 -20 0 -6 -6 -17 -14 -24 -12 -11 -13 -11 -6 1
6 11 4 13 -8 8 -25 -10 -21 1 16 35 l32 31 -31 -21 c-17 -12 -37 -28 -44 -37
-7 -8 -18 -15 -24 -15 -6 1 -5 6 4 13 8 7 24 23 35 37 15 19 16 22 3 11 -13
-10 -18 -10 -18 -1 0 6 -14 0 -31 -14 -31 -26 -65 -38 -41 -14 19 19 14 30 -9
17 -16 -8 -20 -8 -15 0 5 7 -5 17 -24 25 -24 10 -28 15 -16 19 9 4 16 12 16
18 0 8 -5 8 -16 -2 -13 -11 -19 -8 -40 17 -20 23 -23 25 -14 6 17 -35 52 -72
61 -66 5 3 6 -1 4 -8 -5 -13 90 -111 194 -200 32 -27 42 -43 38 -57 -3 -11 -1
-19 5 -18 14 3 60 -84 55 -104 -3 -10 0 -17 6 -16 6 1 12 -2 12 -8 3 -22 20
-52 47 -83 15 -18 28 -41 28 -52 0 -12 5 -17 13 -14 9 3 20 -10 32 -36 10 -23
32 -53 49 -67 17 -14 30 -28 28 -30 -2 -3 12 -19 30 -36 18 -18 32 -35 31 -39
-2 -4 4 -5 12 -2 19 8 19 -6 1 -32 -14 -19 -13 -20 15 -16 18 3 29 0 29 -8 0
-7 -7 -10 -17 -5 -13 4 -15 3 -7 -5 6 -6 24 -13 40 -14 19 -2 29 -9 28 -19 -1
-9 4 -13 12 -10 8 3 14 -1 14 -10 0 -8 -6 -18 -12 -20 -7 -3 -3 -6 10 -6 12
-1 22 -6 22 -12 0 -5 4 -8 9 -4 5 3 13 -4 16 -16 6 -17 9 -19 17 -8 7 10 8 6
4 -13 -6 -26 8 -47 22 -33 3 3 0 10 -7 14 -9 6 -10 11 -2 15 17 11 25 -22 10
-41 -12 -14 -12 -16 0 -8 11 6 13 3 8 -16 -6 -23 -6 -24 10 -4 15 20 15 20 11
-1 -3 -13 0 -21 8 -21 7 0 11 4 8 9 -3 4 2 5 11 2 9 -4 14 -13 11 -21 -4 -10
-1 -13 13 -8 20 6 61 -28 61 -50 0 -25 -34 -109 -38 -92 -2 9 -7 15 -11 13 -4
-3 -4 14 -1 37 3 23 11 41 17 40 13 -3 5 34 -9 43 -6 4 -8 -2 -3 -15 4 -13 2
-23 -7 -26 -7 -3 -13 -19 -14 -36 -1 -16 -6 -35 -11 -40 -6 -6 -8 2 -5 23 5
31 4 31 -12 15 -17 -17 -36 -23 -36 -11 0 3 5 15 11 27 7 14 -1 8 -22 -14 -19
-19 -31 -31 -27 -26 10 15 -13 56 -28 50 -17 -6 -18 9 -2 25 8 8 8 12 1 12 -6
0 -13 -7 -17 -15 -6 -16 -46 -21 -46 -5 0 5 8 14 18 19 9 6 13 11 8 11 -6 0
-23 -12 -39 -27 l-30 -28 6 32 c5 23 3 31 -8 29 -8 -1 -18 -6 -22 -11 -4 -4
-2 -5 5 -1 6 4 12 4 12 -1 0 -12 -20 -39 -20 -28 0 6 -5 3 -10 -5 -6 -10 -8
-3 -4 25 5 36 4 38 -9 22 -8 -9 -20 -17 -28 -17 -9 0 -10 3 -3 8 15 10 14 41
-1 35 -7 -2 -17 -14 -23 -26 -9 -19 -10 -17 -6 13 2 19 2 29 -2 23 -3 -7 -9
-13 -13 -13 -10 0 -7 31 4 50 8 13 6 13 -8 1 -9 -7 -14 -17 -11 -22 3 -5 -4
-9 -16 -9 -17 0 -19 3 -10 19 5 11 10 26 10 33 -1 7 -8 1 -16 -14 -17 -33 -29
-37 -21 -8 6 24 3 25 -16 5 -13 -13 -16 -11 -21 11 -6 22 -9 24 -22 13 -13
-10 -13 -8 -4 15 5 15 6 25 1 21 -16 -9 -23 15 -10 33 8 9 2 7 -12 -6 -14 -12
-29 -19 -32 -15 -4 3 -7 0 -7 -7 0 -7 -2 -11 -5 -9 -2 3 0 20 5 39 7 26 7 31
-2 22 -7 -7 -20 -12 -30 -12 -15 0 -17 4 -9 19 9 16 7 19 -14 19 -14 0 -25 -5
-25 -11 0 -6 -3 -8 -6 -5 -3 4 0 17 7 30 11 21 11 22 -4 9 -20 -16 -22 -8 -6
22 11 20 10 20 -16 -3 -21 -19 -27 -21 -22 -7 4 9 2 17 -4 17 -6 0 -7 5 -4 10
3 6 3 15 -1 21 -4 8 -9 7 -14 -2 -5 -7 -16 -14 -25 -15 -15 -2 -15 -1 1 17 17
19 17 20 -1 13 -15 -6 -17 -4 -12 17 l6 24 -20 -25 c-12 -14 -18 -19 -14 -12
4 7 4 25 1 38 -6 21 -9 24 -21 14 -12 -10 -15 -8 -15 11 -1 22 -2 23 -14 7
-19 -26 -28 -10 -9 18 14 22 14 24 -1 18 -9 -3 -16 -9 -16 -13 0 -4 -7 -8 -15
-8 -18 0 -19 2 -2 19 12 11 12 16 -1 28 -14 13 -15 12 -10 -2 4 -10 1 -19 -7
-22 -10 -3 -12 0 -8 11 5 12 3 14 -7 8 -8 -5 -4 9 9 31 21 35 21 37 3 21 -15
-14 -21 -15 -26 -5 -3 7 -3 2 0 -11 5 -21 4 -22 -9 -10 -15 14 -17 33 -4 45
13 13 7 27 -6 15 -22 -17 -29 0 -10 23 13 15 10 14 -10 -3 -15 -14 -27 -29
-27 -35 0 -6 4 -5 9 3 6 9 11 10 15 2 8 -13 8 -13 -21 -16 -19 -2 -20 1 -12
23 8 21 7 23 -4 13 -12 -9 -16 -7 -20 9 -3 11 -2 18 2 15 5 -2 14 8 20 23 13
27 13 27 -8 8 -12 -11 -21 -15 -21 -11 0 5 -7 0 -16 -11 -15 -18 -15 -18 -5 3
21 43 4 63 -18 20 l-11 -22 6 24 c4 16 3 21 -5 17 -7 -5 -9 -1 -5 8 6 16 -10
23 -19 9 -2 -5 -2 -1 0 7 9 30 8 35 -7 32 -12 -3 -13 -1 -2 9 6 7 12 20 12 28
0 11 -6 9 -23 -7 -13 -12 -31 -22 -41 -22 -16 0 -16 2 -2 22 21 30 20 44 -1
27 -15 -12 -16 -12 -10 4 20 50 20 52 -1 28 -12 -13 -22 -21 -22 -16 0 4 -9
-3 -20 -16 -22 -27 -25 -22 -9 15 7 14 15 23 19 21 4 -3 14 3 21 13 13 15 12
16 -3 3 -18 -13 -25 -4 -10 15 4 5 -5 -3 -19 -19 -23 -24 -27 -26 -33 -11 -8
20 12 46 28 37 6 -3 8 -3 4 1 -3 4 10 23 30 43 21 20 28 29 17 22 -11 -8 -22
-17 -25 -20 -15 -17 -85 -57 -92 -53 -13 8 -9 21 8 28 10 4 13 2 8 -6 -5 -7
-3 -8 5 -4 7 5 10 10 7 13 -3 3 0 15 6 26 8 16 0 12 -32 -13 -42 -33 -43 -33
-25 -7 10 15 20 25 23 22 3 -3 12 4 20 16 24 35 3 34 -33 -1 -36 -35 -48 -32
-17 4 11 14 12 17 2 9 -9 -7 -28 -14 -42 -17 -22 -4 -26 -1 -21 12 3 9 11 23
16 30 15 19 1 26 -22 10 -12 -8 -18 -18 -13 -23 4 -5 2 -5 -5 -1 -8 4 7 25 44
61 31 30 54 57 51 61 -4 3 -27 -16 -52 -42 -25 -26 -46 -44 -46 -40 0 5 -9 -2
-20 -15 -11 -14 -19 -19 -20 -11 0 18 39 72 52 72 6 0 6 -6 -2 -15 -7 -9 -11
-18 -8 -20 9 -9 30 24 23 35 -10 16 -33 12 -55 -12 -18 -20 -20 -20 -14 -4 6
15 4 17 -7 11 -12 -7 -12 -6 -1 6 7 8 18 14 24 14 6 0 20 15 30 33 10 18 14
30 8 27 -6 -4 -16 -18 -21 -32 -5 -14 -12 -23 -15 -20 -4 3 8 32 26 64 l32 58
-31 -29 c-17 -17 -31 -36 -31 -44 0 -12 -3 -12 -15 -2 -14 12 -13 16 7 39 19
22 17 21 -11 -4 -19 -16 -48 -43 -63 -60 -22 -22 -27 -25 -22 -10 7 18 6 19
-12 5 -15 -11 -16 -11 -6 0 15 17 16 34 1 24 -21 -13 5 23 55 76 26 28 45 54
42 57 -3 4 4 18 16 33 13 14 10 12 -7 -5 -16 -17 -40 -42 -52 -56 -12 -13 -30
-30 -40 -38 -10 -8 -36 -30 -57 -50 -22 -20 -33 -27 -25 -15 8 12 29 34 47 49
26 22 30 30 20 37 -9 7 -8 8 5 4 13 -4 17 -1 15 12 -2 11 2 16 12 14 8 -2 12
0 8 3 -8 9 58 72 84 80 9 3 19 13 22 21 4 11 -4 8 -27 -8 -17 -12 -38 -22 -44
-20 -7 2 -13 -3 -13 -10 0 -17 -71 -74 -89 -70 -7 2 -10 -1 -7 -6 3 -6 -2 -20
-13 -33 l-18 -22 2 21 c1 23 43 74 55 67 4 -2 24 13 45 35 21 22 43 36 49 33
6 -3 8 -3 4 2 -4 4 6 15 22 24 47 26 130 109 130 131 0 5 7 10 15 10 22 0 19
-9 -10 -32 -24 -18 -36 -46 -15 -33 6 3 10 1 10 -5 0 -7 -7 -9 -16 -6 -9 3
-12 2 -9 -5 4 -5 1 -18 -6 -27 -8 -9 0 -6 15 8 26 22 28 23 22 5 -5 -16 -1
-14 20 8 14 16 23 31 20 34 -3 4 -13 -2 -21 -13 -8 -10 -14 -14 -14 -9 0 6 6
19 15 30 12 16 17 17 23 6 7 -10 13 -10 29 -2 31 16 37 13 18 -8 -13 -15 -14
-20 -4 -25 7 -3 3 -3 -9 0 -17 4 -23 1 -23 -10 0 -9 -13 -22 -29 -31 -17 -8
-33 -19 -36 -25 -3 -5 10 -1 29 11 20 12 39 25 42 30 3 5 10 9 15 9 6 0 7 -4
4 -10 -3 -6 1 -7 9 -4 9 3 16 9 16 13 0 3 20 17 45 30 36 19 48 22 58 12 9
-10 8 -11 -4 -6 -10 4 -20 0 -25 -7 -4 -7 -4 -10 1 -6 4 4 14 0 22 -10 8 -9
12 -12 9 -6 -8 17 24 27 41 13 17 -14 14 5 -11 86 -9 28 -25 100 -36 160 -29
156 -28 152 -39 173 -6 11 -8 22 -5 24 3 3 -4 8 -16 11 -11 3 -18 2 -15 -2 2
-5 -8 -14 -23 -20 -26 -12 -26 -12 -9 7 30 33 -10 39 -53 8 -9 -6 -6 -1 7 11
33 31 28 36 -12 13 -40 -22 -49 -25 -40 -10 12 20 -12 10 -34 -14 -18 -19 -26
-22 -36 -13 -15 14 -11 23 17 38 16 8 19 8 13 -1 -5 -8 -3 -11 6 -8 8 3 13 11
11 17 -1 7 2 10 7 7 5 -3 11 0 14 8 4 9 0 13 -11 11 -9 -2 -18 -4 -19 -5 -2
-2 -8 -3 -13 -4 -6 0 -15 -7 -19 -15 -5 -8 -22 -14 -39 -15 -17 0 -28 -4 -26
-7 4 -7 -68 -39 -87 -39 -11 0 -18 -5 -69 -50 -22 -19 -28 -28 -15 -23 18 6
19 5 6 -11 -14 -16 -15 -16 -24 0 -7 12 -11 13 -17 4 -4 -7 -14 -10 -21 -8 -9
3 -1 13 21 26 19 12 35 27 35 34 0 7 8 12 18 12 9 -1 15 2 12 6 -2 4 24 20 60
36 35 16 66 34 68 39 3 6 -30 -7 -72 -28 -82 -42 -104 -57 -97 -65 3 -3 -9
-13 -27 -22 -23 -13 -34 -14 -40 -6 -6 7 -7 5 -4 -5 4 -11 -7 -23 -36 -39 -23
-13 -56 -34 -73 -47 -17 -12 -33 -20 -37 -17 -3 3 -10 -4 -17 -15 -6 -12 -16
-19 -21 -15 -6 4 5 22 27 45 37 38 63 52 48 27 -4 -7 4 -3 17 8 13 12 35 27
47 34 13 6 21 14 18 18 -4 3 -12 0 -18 -6 -19 -19 -32 -14 -17 6 13 16 12 16
-6 3 -11 -8 -41 -35 -67 -60 -26 -25 -51 -42 -55 -38 -3 4 -1 13 5 19 21 21
13 30 -9 10 -11 -11 -21 -29 -22 -41 -1 -24 -33 -58 -44 -48 -4 4 2 14 13 23
18 15 17 15 -6 1 -14 -8 -25 -22 -25 -31 0 -8 -8 -23 -18 -33 -9 -10 -17 -12
-17 -6 0 7 5 15 10 18 6 4 10 12 9 18 -2 22 13 57 23 51 11 -7 38 14 38 29 0
6 -6 2 -14 -9 -15 -19 -15 -19 -30 1 -10 12 -14 14 -11 5 3 -9 -7 -28 -25 -45
-26 -25 -32 -27 -40 -15 -7 11 -3 20 12 32 13 9 27 14 33 11 5 -4 7 -2 2 2 -4
5 0 19 8 32 9 13 12 23 8 23 -4 0 2 7 13 15 17 14 15 14 -13 0 -35 -16 -45
-29 -15 -18 15 6 15 4 -2 -15 -19 -22 -43 -31 -31 -11 4 6 -3 5 -16 -3 -27
-15 -89 -76 -89 -87 0 -13 -36 -41 -43 -34 -4 3 -7 -1 -7 -9 0 -9 -7 -21 -15
-28 -30 -25 -14 8 25 53 22 25 40 50 40 57 0 6 4 9 8 6 5 -3 9 1 9 9 0 23 -11
18 -36 -15 -12 -17 -26 -28 -31 -25 -5 3 -12 0 -16 -6 -5 -8 -3 -9 7 -4 12 8
12 6 0 -9 -21 -25 -33 1 -14 31 8 13 11 23 7 22 -11 0 -84 -95 -84 -108 0 -5
-4 -13 -10 -16 -24 -15 35 81 85 137 8 10 15 22 15 27 0 5 17 24 38 41 20 17
29 28 20 25 -22 -9 -100 -87 -116 -117 -7 -13 -21 -34 -32 -48 -16 -21 -21
-23 -32 -11 -11 12 -11 13 1 6 11 -6 13 -4 8 9 -4 9 -3 15 2 11 6 -3 24 16 42
42 18 27 35 50 38 53 17 15 49 69 39 64 -12 -4 -46 -46 -91 -112 -17 -24 -18
-25 -12 -4 9 33 0 27 -40 -24 -49 -66 -48 -56 10 55 l28 54 -26 -19 c-15 -10
-27 -25 -27 -31 0 -7 -4 -13 -10 -13 -18 0 -11 19 17 45 31 28 20 34 -15 9
-26 -18 -29 -12 -6 11 9 9 14 18 12 21 -10 9 -108 -104 -108 -125 0 -7 8 -20
18 -28 9 -8 11 -12 5 -8 -8 4 -11 1 -7 -9 8 -20 33 -9 29 13 -2 10 1 24 7 32
8 11 9 10 4 -5 -5 -13 -2 -17 9 -12 8 3 15 1 15 -4 0 -6 -7 -10 -15 -10 -8 0
-14 -3 -13 -8 1 -4 -3 -17 -10 -29 -11 -20 -10 -21 8 -18 11 2 20 -1 20 -6 0
-6 5 -7 12 -3 7 4 8 3 4 -5 -4 -6 -12 -9 -17 -6 -5 4 -9 2 -9 -3 0 -17 13 -22
28 -9 13 10 14 9 3 -11 -19 -35 -2 -48 21 -15 12 16 17 20 13 8 -18 -48 -18
-66 -1 -59 13 5 15 2 9 -12 -6 -18 -5 -18 18 1 22 18 22 18 9 1 -12 -15 -12
-20 -2 -23 6 -3 10 -9 6 -14 -6 -11 21 -41 30 -32 3 4 6 -2 6 -12 0 -14 3 -15
14 -6 12 10 13 8 9 -8 -3 -12 -1 -21 6 -21 6 0 10 -5 8 -12 -1 -6 9 -17 23
-25 14 -7 21 -13 17 -13 -13 0 41 -50 54 -50 7 0 9 -3 6 -6 -4 -4 3 -16 16
-26 12 -11 41 -37 64 -59 75 -70 569 -419 593 -419 5 0 10 -4 10 -8 0 -5 19
-19 43 -32 23 -13 47 -28 52 -32 17 -14 134 -88 275 -173 188 -113 208 -127
220 -153 5 -13 10 -25 10 -27 0 -3 -73 -40 -162 -83 -243 -118 -361 -210 -540
-422 -173 -206 -276 -373 -379 -620 -69 -167 -75 -178 -168 -308 -98 -139
-119 -192 -132 -335 -5 -60 -12 -114 -16 -121 -3 -6 -2 -8 2 -3 5 4 14 -14 21
-41 7 -27 25 -75 40 -108 29 -62 32 -104 8 -117 -8 -5 -12 -16 -9 -26 3 -9 -3
-26 -12 -37 -44 -49 -58 -69 -40 -55 15 12 17 11 17 -8 0 -12 5 -19 10 -16 6
3 10 1 10 -5 0 -6 -6 -10 -12 -9 -24 3 -38 -1 -38 -11 0 -7 1032 -10 3075 -10
2359 0 3075 3 3075 12 0 30 -142 361 -225 528 -80 157 -107 202 -183 292 -95
114 -774 883 -955 1081 -119 130 -254 305 -263 342 -12 49 11 69 236 202 74
45 223 130 332 191 288 163 402 239 633 421 193 152 363 336 453 491 199 340
265 541 303 920 6 63 12 125 13 138 1 27 16 29 23 2 3 -11 11 -20 18 -20 7 0
34 -37 60 -81 84 -146 151 -202 217 -180 81 27 153 115 192 237 35 108 68 263
60 277 -4 7 -3 8 1 4 10 -9 38 111 29 124 -3 5 -1 9 3 9 5 0 17 30 27 68 11
37 30 92 43 121 13 30 21 61 18 68 -2 8 -1 12 3 9 5 -3 19 16 31 42 12 26 58
112 100 192 78 145 161 300 188 352 8 16 12 38 8 50 -4 15 -3 18 2 11 10 -14
83 152 83 188 0 11 18 55 40 99 22 43 49 112 61 152 55 191 89 337 87 375 -2
22 0 39 5 36 7 -4 10 25 11 120 1 26 4 47 7 47 11 0 9 79 -2 86 -8 5 -8 9 1
14 7 4 11 25 11 46 -1 22 -2 48 -2 58 0 11 -5 28 -10 39 -8 15 -8 18 1 12 8
-5 10 -2 7 11 -3 11 -9 36 -13 56 -3 21 -10 35 -15 32 -5 -3 -6 2 -3 10 3 9 1
16 -5 16 -6 0 -8 7 -5 15 4 8 1 15 -6 15 -6 0 -9 4 -6 9 3 5 -1 12 -10 15 -9
4 -14 13 -10 22 3 8 2 13 -3 10 -9 -6 -18 9 -19 28 0 5 -7 13 -16 18 -9 5 -14
14 -10 19 3 5 2 9 -3 8 -4 -1 -14 -1 -22 0 -11 1 -11 4 0 18 9 11 9 14 2 10
-14 -9 -80 49 -75 65 1 5 -2 7 -7 4 -5 -4 -13 0 -18 8 -4 8 -12 15 -18 16 -5
1 -9 6 -7 11 1 5 -6 9 -16 9 -10 0 -34 14 -52 30 -18 17 -30 30 -26 30 4 0 1
6 -6 14 -7 8 -17 12 -21 9 -11 -7 -38 17 -31 28 3 5 -7 9 -21 9 -20 0 -26 4
-22 14 4 10 1 13 -8 9 -8 -3 -18 2 -21 11 -3 9 -12 16 -20 16 -8 0 -14 5 -14
10 0 6 -11 15 -25 20 -14 5 -25 16 -25 25 0 9 -9 15 -23 15 -12 0 -30 9 -40
20 -10 12 -22 18 -29 14 -6 -4 -9 -1 -6 7 3 8 0 19 -6 25 -12 11 -65 29 -79
25 -5 -1 -6 3 -2 9 3 5 14 11 23 11 9 1 4 4 -13 8 -16 4 -29 12 -28 19 2 6 -4
9 -13 5 -9 -3 -14 0 -12 8 2 8 -7 15 -22 17 -14 2 -27 7 -30 11 -3 3 -22 15
-43 26 -33 16 -36 20 -20 26 10 4 12 8 5 8 -7 1 -20 8 -28 16 -9 8 -29 15 -45
15 -17 0 -28 4 -24 9 3 5 -4 12 -15 16 -11 3 -19 11 -17 18 1 6 -14 14 -33 18
-19 3 -26 7 -15 8 20 2 20 2 1 16 -11 8 -28 15 -39 15 -11 0 -15 4 -11 12 5 8
2 9 -9 5 -10 -4 -16 -2 -14 6 1 7 -4 11 -12 9 -9 -2 -12 4 -9 16 4 16 1 18
-15 14 -14 -3 -18 -1 -13 6 7 11 -11 17 -41 13 -7 -1 -10 4 -8 11 3 8 -7 19
-25 26 -17 8 -28 17 -25 21 2 5 -16 17 -41 27 -27 11 -43 23 -40 31 4 9 -4 13
-22 13 -20 0 -23 3 -13 9 12 8 9 11 -12 16 -15 4 -25 11 -22 15 3 5 -10 13
-28 19 -18 6 -39 20 -47 31 -8 11 -20 20 -27 20 -7 0 -13 7 -13 16 0 10 -6 14
-14 11 -8 -3 -17 1 -20 9 -3 8 -13 14 -21 14 -9 0 -13 5 -10 10 3 6 2 10 -4
10 -5 0 -11 -6 -13 -12 -3 -8 -9 -4 -17 10 -6 12 -19 22 -27 22 -8 0 -12 5 -9
10 4 6 3 10 -2 9 -22 -4 -44 2 -39 10 4 5 -3 7 -14 4 -11 -3 -20 0 -20 6 0 6
-10 11 -22 12 -22 0 -22 1 -3 9 28 12 -1 12 -43 1 -20 -6 -30 -6 -27 0 4 5 -7
9 -24 9 -16 0 -33 -5 -36 -10 -4 -6 -11 -7 -17 -4 -7 5 -3 10 10 15 25 10 29
29 6 29 -8 0 -13 -4 -10 -9 3 -5 -18 -15 -47 -21 -28 -7 -59 -16 -68 -21 -9
-4 -25 -5 -37 -2 l-21 5 21 18 c16 13 18 19 8 25 -8 5 -11 4 -7 -2 4 -7 -11
-13 -38 -17 -24 -4 -47 -12 -51 -17 -4 -6 -11 -6 -19 1 -8 7 -20 8 -27 4 -7
-4 -5 2 6 14 10 12 23 19 28 16 6 -4 5 -10 -3 -16 -10 -6 -6 -7 11 -2 28 7 53
24 46 31 -2 3 -14 0 -25 -7 -14 -7 -21 -7 -21 0 0 5 23 24 50 41 28 17 50 33
50 36 0 5 -65 -32 -90 -52 -17 -14 -45 -25 -79 -31 -20 -4 -21 -3 -10 10 32
35 41 48 37 51 -2 3 -16 -7 -30 -20 -15 -14 -29 -21 -32 -17 -3 5 4 16 15 25
10 9 19 22 19 29 0 8 -4 7 -12 -3 -7 -8 -26 -25 -42 -39 l-29 -25 18 30 19 30
-38 -35 c-35 -32 -37 -32 -21 -7 18 28 9 37 -14 15 -11 -11 -13 -10 -8 5 11
30 -8 18 -22 -15 -8 -18 -16 -27 -19 -19 -3 9 -14 4 -35 -16 -18 -15 -24 -19
-14 -7 9 11 17 25 17 31 0 6 7 13 15 17 8 3 15 12 15 20 0 11 -8 8 -25 -10
-16 -16 -32 -23 -43 -20 -12 4 -27 -3 -42 -19 -24 -25 -16 -35 10 -12 12 10
12 9 1 -5 -7 -10 -19 -18 -27 -18 -7 0 -15 -4 -18 -9 -4 -5 4 -7 16 -3 20 5
21 4 10 -11 -8 -9 -22 -19 -33 -22 -11 -4 -16 -11 -13 -17 5 -8 1 -9 -10 -5
-10 4 -21 7 -24 7 -4 0 4 10 18 21 l25 21 -33 -19 c-18 -10 -28 -19 -23 -21 6
-2 -2 -14 -17 -26 -37 -32 -72 -49 -72 -37 0 6 10 16 22 22 24 13 53 39 44 39
-10 0 -79 -51 -92 -67 -7 -10 -16 -15 -20 -11 -4 4 8 21 26 38 20 19 25 28 14
23 -19 -6 -19 -6 0 15 l18 21 -50 -21 c-28 -12 -64 -32 -79 -45 -29 -24 -24
-23 51 11 62 28 53 11 -21 -38 -37 -25 -62 -46 -54 -46 7 0 26 10 43 21 19 14
33 18 39 12 6 -6 -6 -18 -35 -34 -25 -13 -43 -25 -41 -27 6 -6 79 35 103 58
13 12 25 20 27 18 7 -6 -20 -53 -30 -54 -11 0 -85 -44 -85 -50 0 -6 53 16 69
29 12 9 13 9 7 0 -10 -18 4 -16 24 2 15 13 17 13 17 0 0 -8 -3 -13 -5 -10 -3
3 -11 0 -19 -7 -7 -6 -16 -8 -20 -5 -6 6 -63 -20 -63 -29 0 -2 9 0 21 6 11 7
23 9 26 6 3 -3 -7 -10 -23 -16 -16 -6 -38 -15 -49 -20 -19 -10 -19 -10 3 -6
12 2 22 -1 22 -7 0 -9 2 -9 8 0 7 11 26 16 52 14 8 -1 -5 -10 -29 -21 -24 -11
-41 -23 -38 -26 3 -3 19 0 34 8 16 8 35 12 41 10 7 -2 -5 -13 -28 -24 -22 -11
-39 -23 -36 -26 3 -3 11 0 18 5 21 16 48 23 48 13 0 -6 -6 -10 -14 -10 -7 0
-20 -8 -27 -17 -12 -15 -12 -16 8 -11 17 4 20 2 16 -10 -5 -11 -2 -14 10 -9
26 10 20 -12 -5 -23 -19 -7 -15 -9 17 -6 22 2 30 1 18 -1 -29 -6 -53 -33 -28
-33 14 0 15 -3 5 -15 -15 -18 -10 -25 18 -28 16 -1 18 -4 10 -14 -8 -10 -5
-13 12 -13 21 0 20 -13 -1 -16 -24 -4 -21 -7 11 -14 l35 -7 -32 -8 c-18 -4
-30 -12 -27 -17 3 -5 12 -7 18 -5 9 4 11 -3 8 -19 -5 -29 -41 -32 -86 -9 -15
8 -34 15 -41 15 -7 0 -18 7 -25 15 -7 8 -16 12 -21 9 -5 -3 -9 -1 -9 5 0 5 4
11 10 13 5 2 -11 4 -38 6 -78 6 -81 6 -76 13 5 8 -47 19 -91 19 -18 0 -38 7
-45 15 -7 9 -21 13 -31 10 -11 -4 -26 1 -36 10 -13 13 -27 16 -60 11 -30 -4
-42 -2 -40 6 2 14 -40 25 -101 27 -24 0 -41 4 -39 9 3 4 -19 6 -49 5 -30 -1
-53 1 -50 5 2 4 -12 7 -32 7 -21 0 -40 4 -43 8 -3 4 -18 3 -32 -2 -14 -6 -29
-6 -31 -2 -3 5 -24 7 -46 6 -22 -1 -40 2 -40 6 0 10 -29 7 -47 -4 -7 -5 -13
-5 -13 0 0 4 -26 8 -58 8 -31 0 -60 4 -63 8 -4 5 -20 2 -38 -7 -17 -9 -31 -13
-31 -9 0 5 -5 1 -10 -7 -7 -11 -10 -11 -10 -2 0 10 -4 10 -22 0 -13 -6 -30
-13 -38 -14 -8 -2 -23 -13 -32 -25 -10 -11 -18 -18 -18 -14 0 17 -43 -49 -72
-110 -38 -82 -50 -216 -22 -250 8 -11 12 -14 8 -6 -5 9 -3 12 4 7 7 -4 12 -19
12 -34 0 -19 3 -23 9 -14 6 10 10 7 15 -13 6 -23 9 -25 23 -13 10 7 14 8 10 1
-4 -6 -4 -19 -1 -28 5 -13 8 -14 15 -3 7 10 9 10 9 0 0 -7 -6 -14 -12 -17 -27
-8 -1728 -11 -1728 -3 0 5 -4 6 -10 3 -6 -3 -7 1 -3 10 5 14 8 14 15 3 8 -11
10 -11 15 0 4 10 8 9 19 -5 13 -17 13 -17 14 2 0 15 3 16 12 7 15 -15 48 -16
48 -1 0 7 7 8 18 4 9 -4 29 -8 44 -10 21 -1 25 1 17 11 -15 19 7 27 24 9 17
-16 32 -20 23 -6 -9 14 20 21 34 8 10 -9 11 -7 5 13 -6 20 -5 23 6 13 18 -18
29 -16 29 3 0 10 6 14 15 10 11 -4 15 2 15 20 0 14 4 23 8 20 16 -10 39 49 37
94 -3 45 -5 57 -23 116 -14 44 -76 139 -114 174 -33 30 -58 38 -58 20 0 -6
-18 1 -40 15 -46 29 -50 30 -50 10 0 -13 -4 -13 -27 2 -15 10 -24 12 -20 6 10
-15 -41 -15 -60 0 -9 6 -13 6 -13 -1 0 -6 -10 -9 -22 -7 -12 3 -25 0 -28 -5
-3 -5 -21 -5 -43 -1 -20 5 -37 6 -37 2 0 -6 -30 -10 -97 -12 -18 -1 -33 -4
-33 -8 0 -3 -16 -6 -35 -5 -19 1 -57 -5 -83 -13 -26 -8 -58 -16 -72 -18 -42
-4 -80 -17 -80 -26 0 -5 -9 -9 -20 -9 -36 0 -243 -60 -304 -89 -34 -15 -78
-33 -98 -40 -20 -7 -42 -19 -48 -27 -7 -7 -19 -14 -26 -14 -8 0 -14 -7 -14
-15 0 -8 -7 -15 -16 -15 -26 0 -128 -60 -161 -96 -17 -19 -36 -34 -42 -34 -6
0 -8 -7 -5 -15 4 -10 0 -15 -11 -15 -9 0 -14 -4 -11 -9 3 -4 -15 -29 -40 -54
-24 -25 -44 -49 -43 -54 1 -4 -3 -21 -9 -36 -7 -16 -12 -34 -12 -41 0 -7 -11
-25 -25 -40 -13 -14 -20 -26 -16 -26 5 0 7 -11 6 -25 -2 -14 1 -27 6 -31 5 -3
7 -10 4 -15 -4 -5 1 -9 9 -9 9 0 16 -3 16 -7 0 -17 181 2 222 23 15 8 35 14
45 13 10 0 -17 -18 -59 -39 -146 -72 -299 -181 -480 -340 -40 -35 -63 -53 -51
-39 14 15 21 33 18 48 -2 12 0 33 5 46 5 13 11 42 14 65 3 22 8 46 12 52 8 12
13 34 16 71 1 9 6 17 11 17 5 0 7 6 4 14 -3 7 0 19 6 25 6 6 8 11 4 11 -3 0 2
20 13 45 11 25 19 46 18 48 -2 3 21 78 32 102 5 11 20 47 35 80 15 33 29 69
31 80 11 45 28 90 50 128 15 26 25 58 26 85 1 6 4 12 8 12 4 0 7 6 8 13 1 14
10 51 12 55 2 1 3 5 5 10 1 4 7 21 14 37 14 33 14 34 26 88 4 20 11 37 16 37
5 0 6 7 3 15 -3 8 1 34 10 57 10 24 18 53 19 66 0 12 5 22 9 22 4 0 8 14 8 30
0 17 5 30 11 30 5 0 7 5 4 10 -3 6 -2 10 3 10 5 0 8 14 7 30 -1 20 3 30 13 30
9 0 13 7 9 20 -3 11 -1 20 4 20 5 0 9 11 9 25 0 14 4 25 9 25 5 0 12 7 15 16
4 10 2 13 -7 8 -8 -6 -8 -3 1 9 8 9 10 22 6 28 -5 9 -2 10 9 6 15 -5 15 -3 4
16 -6 12 -19 31 -27 42 -11 14 -7 13 13 -5 l28 -24 -13 30 c-16 36 -72 108
-62 79 4 -11 12 -26 17 -33 8 -11 6 -11 -16 -1 -15 7 -24 17 -20 23 4 7 1 7
-7 -1 -10 -9 -17 -7 -33 8 -11 10 -35 19 -51 20 -17 0 -39 2 -49 4 -13 2 -17
-1 -13 -11 4 -11 -1 -10 -21 3 -26 17 -27 17 -20 0z m5225 -204 c18 -4 20 -8
10 -14 -7 -5 -20 -9 -28 -9 -13 0 -13 1 0 11 11 8 8 9 -15 5 -22 -5 -26 -4
-15 4 18 12 18 12 48 3z m147 -3 c-11 -5 -33 -9 -50 -9 -23 -1 -27 -4 -15 -11
8 -5 11 -10 5 -10 -5 0 -16 4 -24 9 -17 11 30 29 74 30 26 0 27 -2 10 -9z
m180 -10 c3 -6 -1 -7 -9 -4 -18 7 -21 14 -7 14 6 0 13 -4 16 -10z m-744 -23
c-6 -8 -9 -17 -6 -20 3 -4 2 -5 -1 -2 -4 2 -22 -8 -40 -22 -24 -18 -33 -21
-28 -9 3 9 10 16 14 16 4 0 18 11 31 25 25 25 50 35 30 12z m793 1 c-3 -4 -12
-8 -20 -8 -8 0 -13 4 -10 8 3 5 12 9 20 9 8 0 13 -4 10 -9z m-359 -8 c3 -5 1
-10 -4 -10 -6 0 -11 5 -11 10 0 6 2 10 4 10 3 0 8 -4 11 -10z m-495 -3 c0 -2
-15 -14 -32 -27 -27 -19 -30 -20 -18 -4 21 27 50 45 50 31z m560 -17 c-20 -13
-33 -13 -25 0 3 6 14 10 23 10 15 0 15 -2 2 -10z m-40 -4 c0 -3 -4 -8 -10 -11
-5 -3 -10 -1 -10 4 0 6 5 11 10 11 6 0 10 -2 10 -4z m140 -6 c-8 -5 -19 -10
-25 -10 -5 0 -3 5 5 10 8 5 20 10 25 10 6 0 3 -5 -5 -10z m55 0 c-3 -5 -12
-10 -18 -10 -7 0 -6 4 3 10 19 12 23 12 15 0z m-105 -15 c14 -16 10 -18 -14
-9 -9 3 -16 10 -16 15 0 14 16 11 30 -6z m-685 -15 c-10 -17 -45 -32 -45 -20
0 6 10 15 23 20 29 12 29 12 22 0z m-5085 -320 c-20 -13 -43 -13 -35 0 3 6 16
10 28 10 18 0 19 -2 7 -10z m5040 -24 c0 -3 -4 -8 -10 -11 -5 -3 -10 -1 -10 4
0 6 5 11 10 11 6 0 10 -2 10 -4z m830 -166 c0 -5 -2 -10 -4 -10 -3 0 -8 5 -11
10 -3 6 -1 10 4 10 6 0 11 -4 11 -10z m-5936 -75 c-4 -8 -8 -15 -10 -15 -2 0
-4 7 -4 15 0 8 4 15 10 15 5 0 7 -7 4 -15z m2126 -215 c0 -5 -5 -10 -11 -10
-5 0 -7 5 -4 10 3 6 8 10 11 10 2 0 4 -4 4 -10z m-304 -30 c5 1 10 -3 12 -8 2
-6 -6 -8 -17 -5 -12 3 -21 13 -21 22 0 12 2 13 9 3 4 -8 12 -13 17 -12z m87 7
c4 3 7 4 7 1 0 -3 -6 -11 -14 -17 -11 -9 -15 -7 -19 9 -4 16 -2 19 7 11 7 -6
16 -8 19 -4z m-38 -7 c3 -5 -1 -10 -10 -10 -9 0 -13 5 -10 10 3 6 8 10 10 10
2 0 7 -4 10 -10z m-250 -13 c6 0 27 3 47 7 22 4 39 2 43 -4 6 -10 4 -11 -82
-15 -29 -1 -59 -5 -68 -8 -8 -4 -25 -2 -37 3 l-23 9 25 2 c14 1 31 2 37 2 7
-1 10 4 7 9 -4 6 2 7 17 2 13 -4 29 -7 34 -7z m129 1 c-3 -4 -9 -8 -15 -8 -5
0 -9 4 -9 8 0 5 7 9 15 9 8 0 12 -4 9 -9z m-266 -23 c-9 -10 -78 -16 -78 -8 0
5 19 9 42 11 23 1 39 0 36 -3z m-128 -21 c0 -8 -19 -13 -24 -6 -3 5 1 9 9 9 8
0 15 -2 15 -3z m-130 -18 c0 -2 -7 -7 -16 -10 -8 -3 -12 -2 -9 4 6 10 25 14
25 6z m-60 -20 c0 -2 -39 -16 -87 -31 -48 -15 -122 -42 -165 -61 -75 -32 -78
-33 -61 -10 10 13 21 22 25 20 10 -6 88 29 88 39 0 4 4 6 10 2 5 -3 26 2 47
11 21 9 52 18 68 21 17 3 32 7 34 9 6 5 41 5 41 0z m4867 -32 c-3 -3 -12 -4
-19 -1 -8 3 -5 6 6 6 11 1 17 -2 13 -5z m-6923 -202 c-69 -59 -86 -72 -96 -72
-5 0 -8 10 -6 23 2 12 8 21 13 20 6 -1 20 5 33 13 12 8 22 12 22 9 0 -3 10 3
22 15 12 11 27 20 32 20 6 0 -3 -13 -20 -28z m726 18 c0 -5 -5 -10 -11 -10 -5
0 -7 5 -4 10 3 6 8 10 11 10 2 0 4 -4 4 -10z m-720 -55 c0 -8 -4 -15 -9 -15
-13 0 -22 16 -14 24 11 11 23 6 23 -9z m-130 -58 c-10 -9 -11 -8 -6 7 5 15 2
17 -16 13 -22 -6 -22 -6 -3 9 17 13 20 12 28 -2 6 -10 5 -20 -3 -27z m-83 8
c0 -8 -4 -12 -9 -9 -5 3 -6 10 -3 15 9 13 12 11 12 -6z m267 -11 c-1 -14 -4
-27 -6 -28 -47 -34 -68 -45 -68 -37 0 6 9 15 20 21 10 6 17 16 14 24 -5 13 20
46 35 46 5 0 7 -12 5 -26z m-299 -12 c-3 -3 -11 0 -18 7 -9 10 -8 11 6 5 10
-3 15 -9 12 -12z m75 3 c-7 -9 -15 -13 -17 -11 -7 7 7 26 19 26 6 0 6 -6 -2
-15z m-150 -13 c0 -10 -6 -19 -13 -19 -8 0 -14 6 -14 13 0 7 4 11 9 8 4 -3 8
0 8 5 0 6 2 11 5 11 3 0 5 -8 5 -18z m-96 -10 c2 -4 -4 -8 -14 -8 -10 0 -16 4
-14 8 3 4 9 8 14 8 5 0 11 -4 14 -8z m398 -12 c-21 -13 -32 -26 -28 -35 3 -8
0 -17 -6 -21 -7 -4 -8 -3 -4 4 10 16 -6 15 -24 0 -8 -7 -6 -2 5 12 30 37 58
59 75 60 8 0 0 -9 -18 -20z m-502 0 c0 -5 -5 -10 -11 -10 -5 0 -7 5 -4 10 3 6
8 10 11 10 2 0 4 -4 4 -10z m450 0 c0 -5 -5 -10 -11 -10 -5 0 -7 5 -4 10 3 6
8 10 11 10 2 0 4 -4 4 -10z m-555 -10 c3 -6 -1 -7 -9 -4 -18 7 -21 14 -7 14 6
0 13 -4 16 -10z m502 2 c8 -5 6 -14 -8 -32 -20 -25 -20 -25 -9 -1 10 19 9 25
-1 32 -8 5 -9 9 -4 9 6 0 15 -4 22 -8z m-436 -25 c-10 -9 -11 -8 -5 6 3 10 9
15 12 12 3 -3 0 -11 -7 -18z m329 9 c0 -2 -7 -7 -16 -10 -8 -3 -12 -2 -9 4 6
10 25 14 25 6z m-456 -20 c-3 -8 -13 -17 -22 -21 -13 -5 -13 -2 3 15 21 24 26
25 19 6z m698 2 c-13 -13 -16 -32 -4 -24 4 2 9 -5 9 -16 2 -19 1 -19 -11 -3
-8 12 -18 15 -27 10 -8 -5 -3 4 10 18 14 15 27 27 30 27 3 0 0 -5 -7 -12z
m-773 -25 c-10 -11 -14 -11 -20 -1 -10 17 -2 28 17 21 11 -4 12 -8 3 -20z
m151 17 c0 -5 -5 -10 -11 -10 -5 0 -7 5 -4 10 3 6 8 10 11 10 2 0 4 -4 4 -10z
m824 -15 c-3 -8 -15 -17 -25 -20 -11 -4 -18 -12 -16 -18 7 -20 -22 -60 -64
-90 -22 -15 -37 -32 -34 -37 3 -6 -1 -7 -10 -4 -14 6 -14 8 2 20 12 9 14 16 8
21 -19 14 -5 54 18 52 9 0 9 -2 0 -5 -7 -3 -9 -12 -6 -20 7 -19 23 -18 23 3 0
9 3 13 7 10 8 -8 33 11 33 25 0 6 -7 5 -15 -2 -33 -28 -12 4 27 41 44 41 61
49 52 24z m-664 -21 c0 -8 -19 -13 -24 -6 -3 5 1 9 9 9 8 0 15 -2 15 -3z m431
-27 c-10 -9 -11 -8 -5 6 3 10 9 15 12 12 3 -3 0 -11 -7 -18z m709 13 c0 -5 -5
-10 -11 -10 -5 0 -7 5 -4 10 3 6 8 10 11 10 2 0 4 -4 4 -10z m6341 -7 c13 -16
12 -17 -3 -4 -10 7 -18 15 -18 17 0 8 8 3 21 -13z m-7021 -7 c0 -2 -8 -10 -17
-17 -16 -13 -17 -12 -4 4 13 16 21 21 21 13z m-80 -10 c0 -3 -4 -8 -10 -11 -5
-3 -10 -1 -10 4 0 6 5 11 10 11 6 0 10 -2 10 -4z m120 -10 c0 -3 -4 -8 -10
-11 -5 -3 -10 -1 -10 4 0 6 5 11 10 11 6 0 10 -2 10 -4z m620 -11 c-7 -8 -17
-15 -22 -15 -6 0 -5 7 2 15 7 8 17 15 22 15 6 0 5 -7 -2 -15z m-650 -3 c0 -5
-7 -9 -15 -9 -8 0 -12 4 -9 9 3 4 9 8 15 8 5 0 9 -4 9 -8z m164 -11 c3 -5 0
-13 -7 -19 -10 -8 -13 -6 -13 9 0 20 11 25 20 10z m-217 -36 c0 -8 -4 -12 -9
-9 -5 3 -6 10 -3 15 9 13 12 11 12 -6z m68 -5 c-10 -11 -21 -18 -23 -15 -3 3
3 12 14 20 27 20 30 18 9 -5z m611 -75 c0 -15 -4 -21 -9 -16 -5 5 -7 17 -4 25
9 23 13 20 13 -9z m-26 -5 c0 -5 -2 -10 -4 -10 -3 0 -8 5 -11 10 -3 6 -1 10 4
10 6 0 11 -4 11 -10z m-620 -34 c0 -2 -7 -7 -16 -10 -8 -3 -12 -2 -9 4 6 10
25 14 25 6z m613 -47 c-6 -6 -9 -18 -6 -25 3 -9 -2 -14 -17 -14 -19 0 -20 2
-10 15 7 8 9 15 4 15 -5 0 0 7 10 15 22 16 36 11 19 -6z m-653 7 c0 -2 -8 -10
-17 -17 -16 -13 -17 -12 -4 4 13 16 21 21 21 13z m163 -22 c-4 -12 -8 -13 -14
-3 -9 15 -2 32 11 24 5 -3 6 -13 3 -21z m2389 -59 c147 -30 253 -88 342 -187
49 -54 117 -167 145 -241 9 -23 6 -22 -30 14 -58 58 -137 105 -226 135 -70 24
-88 26 -183 21 -167 -8 -283 -59 -401 -176 -67 -67 -124 -163 -156 -260 -23
-74 -29 -254 -9 -331 26 -105 80 -204 154 -282 97 -103 187 -156 312 -183 l55
-12 -128 -41 c-157 -51 -250 -70 -394 -83 -187 -16 -370 12 -451 70 -31 22
-68 105 -103 236 -31 111 -33 400 -5 520 68 293 208 523 396 652 54 37 170 96
223 113 148 47 330 61 459 35z m3090 -20 c84 -18 133 -36 230 -86 162 -85 317
-287 397 -519 40 -116 59 -365 33 -431 -6 -15 -8 -30 -5 -33 3 -3 0 -13 -7
-21 -7 -9 -13 -29 -12 -45 0 -17 -4 -30 -9 -30 -6 0 -7 -4 -4 -10 3 -5 2 -10
-4 -10 -6 0 -8 -6 -5 -14 3 -8 1 -17 -5 -21 -6 -3 -11 -15 -11 -25 0 -10 -5
-20 -10 -22 -6 -2 -13 -16 -16 -32 -3 -16 -14 -40 -24 -54 -11 -13 -17 -28
-14 -33 3 -5 1 -9 -5 -9 -5 0 -13 -10 -17 -22 -4 -13 -14 -30 -23 -38 -9 -8
-17 -21 -19 -29 -2 -8 -19 -30 -37 -50 -23 -23 -31 -37 -23 -42 30 -18 -82
-31 -227 -26 -160 6 -256 23 -430 77 -139 42 -137 41 -71 56 106 25 201 79
281 157 203 202 249 478 122 737 -81 166 -247 298 -415 331 -126 24 -303 0
-410 -55 -18 -9 -32 -14 -32 -11 0 3 18 30 40 59 77 101 212 201 328 242 98
35 270 38 404 9z m-5417 -16 c-3 -8 -14 -20 -24 -26 -16 -10 -19 -9 -17 4 3
15 36 46 43 39 2 -2 1 -10 -2 -17z m-72 -29 c-3 -12 -8 -19 -11 -16 -5 6 5 36
12 36 2 0 2 -9 -1 -20z m24 -35 c0 -8 -3 -15 -6 -16 -3 0 -14 -2 -24 -4 -18
-3 -18 -3 -1 16 21 23 31 24 31 4z m-95 -67 c-6 -6 -9 0 -9 18 0 23 1 24 9 10
7 -12 7 -21 0 -28z m45 -80 c-3 -7 -5 -2 -5 12 0 14 2 19 5 13 2 -7 2 -19 0
-25z m-9 -53 c-6 -14 -13 -23 -15 -21 -5 5 15 46 22 46 3 0 -1 -11 -7 -25z m3
-38 c-10 -9 -11 -8 -5 6 3 10 9 15 12 12 3 -3 0 -11 -7 -18z m25 -19 c-18 -26
-22 -17 -5 14 6 11 13 17 16 15 3 -3 -2 -16 -11 -29z m420 -3 c-8 -8 -18 -15
-22 -15 -3 0 -1 7 6 15 7 8 17 15 22 15 5 0 3 -7 -6 -15z m4456 -106 c22 -12
40 -71 34 -111 -11 -72 -102 -93 -158 -38 -27 28 -30 35 -24 72 9 53 22 77 49
88 23 9 70 4 99 -11z m-2625 -48 c50 -23 63 -45 63 -106 0 -57 -23 -100 -66
-120 -41 -19 -64 -19 -114 1 -51 20 -80 66 -80 126 0 100 92 146 197 99z
m-2297 -90 c0 -6 -4 -12 -8 -15 -5 -3 -9 1 -9 9 0 8 4 15 9 15 4 0 8 -4 8 -9z
m-32 -151 c-7 -10 -14 -17 -17 -15 -4 4 18 35 25 35 2 0 -1 -9 -8 -20z m397
-80 c-6 -9 -9 -9 -16 1 -10 17 0 34 13 21 6 -6 7 -16 3 -22z m-345 6 c0 -3 -4
-8 -10 -11 -5 -3 -10 -1 -10 4 0 6 5 11 10 11 6 0 10 -2 10 -4z m-79 -99 c-10
-9 -11 -8 -5 6 3 10 9 15 12 12 3 -3 0 -11 -7 -18z m449 10 c0 -2 -17 -19 -37
-38 l-38 -34 34 38 c33 34 41 42 41 34z m2484 -109 c12 0 30 0 40 1 11 1 23
-4 28 -11 6 -10 8 -8 8 4 0 15 4 16 25 8 18 -7 25 -6 25 2 0 6 2 9 5 6 8 -8
-25 -109 -56 -169 -65 -130 -158 -209 -296 -250 -117 -36 -217 -46 -295 -30
-105 22 -252 139 -276 220 -23 74 17 104 108 83 46 -11 79 -10 99 2 5 3 14 -1
21 -9 23 -28 118 -55 193 -55 56 0 84 6 125 25 30 14 58 23 62 20 5 -3 12 0
16 6 5 8 2 10 -7 5 -8 -4 -3 1 11 12 13 11 29 18 34 15 5 -3 6 -1 3 4 -4 6 6
24 21 41 15 16 37 49 47 72 18 39 20 41 29 21 5 -11 18 -22 30 -23z m-2524 -2
c0 -3 -4 -8 -10 -11 -5 -3 -10 -1 -10 4 0 6 5 11 10 11 6 0 10 -2 10 -4z
m-439 -29 c-10 -9 -11 -8 -5 6 3 10 9 15 12 12 3 -3 0 -11 -7 -18z m74 -17
c-3 -5 -11 -10 -16 -10 -6 0 -7 5 -4 10 3 6 11 10 16 10 6 0 7 -4 4 -10z m-45
-16 c0 -8 -5 -12 -10 -9 -6 4 -8 11 -5 16 9 14 15 11 15 -7z m5634 -71 c8 -27
3 -44 -27 -95 -66 -113 -227 -198 -373 -198 -95 0 -158 17 -225 62 -78 53
-114 104 -105 153 5 23 11 33 18 29 6 -4 28 -9 47 -11 20 -2 48 -5 63 -7 15
-1 26 0 24 3 -2 3 44 6 103 6 101 0 111 2 172 32 35 18 56 27 47 19 -10 -7
-18 -16 -18 -20 0 -10 83 4 90 15 3 5 24 11 45 15 22 3 42 8 44 10 2 2 24 4
47 4 32 0 44 -4 48 -17z m-5640 -18 c-4 -8 -8 -15 -10 -15 -2 0 -4 7 -4 15 0
8 4 15 10 15 5 0 7 -7 4 -15z m4920 -234 c-7 -9 -79 46 -128 100 -90 97 -64
94 37 -5 51 -50 92 -93 91 -95z m-4964 -1 c0 -5 -5 -10 -11 -10 -5 0 -7 5 -4
10 3 6 8 10 11 10 2 0 4 -4 4 -10z m311 -18 c-6 -2 -9 -7 -6 -12 3 -4 -3 -14
-12 -21 -12 -10 -14 -10 -9 -1 4 7 2 12 -5 12 -7 0 -2 12 12 26 16 17 25 21
28 13 2 -7 -1 -15 -8 -17z m-343 -82 c-7 -10 -14 -17 -17 -15 -4 4 18 35 25
35 2 0 -1 -9 -8 -20z m45 -15 c-18 -25 -40 -35 -27 -12 14 24 27 37 36 37 5 0
1 -11 -9 -25z m237 -85 c-12 -16 -26 -30 -31 -30 -6 0 -8 -4 -4 -9 3 -5 -3
-16 -12 -23 -10 -7 -19 -20 -21 -28 -5 -24 -19 -33 -25 -17 -3 9 12 34 36 62
23 26 43 51 43 56 3 18 4 19 20 19 13 0 12 -5 -6 -30z m44 6 c-3 -9 -10 -16
-15 -16 -5 0 -4 9 3 20 14 22 21 20 12 -4z m-14 -50 c0 -2 -8 -10 -17 -17 -16
-13 -17 -12 -4 4 13 16 21 21 21 13z m-317 -51 c-3 -9 -8 -14 -10 -11 -3 3 -2
9 2 15 9 16 15 13 8 -4z m260 -10 c-3 -9 -8 -14 -10 -11 -3 3 -2 9 2 15 9 16
15 13 8 -4z m-23 -9 c0 -8 -11 -28 -25 -43 l-25 -28 11 28 c7 15 16 27 21 27
4 0 8 7 8 15 0 8 2 15 5 15 3 0 5 -6 5 -14z m-95 -105 c-21 -28 -42 -48 -46
-46 -4 3 -5 -4 -2 -15 3 -11 0 -20 -6 -20 -6 0 -11 -4 -11 -8 0 -5 7 -9 15 -9
8 0 12 3 10 7 -2 3 9 22 26 41 16 19 29 39 29 46 0 6 5 15 11 19 8 4 9 -1 4
-16 -5 -17 -4 -21 6 -15 8 5 11 4 6 -1 -5 -5 -14 -9 -19 -9 -6 0 -13 -6 -16
-14 -3 -9 0 -11 9 -6 12 7 12 5 1 -6 -7 -8 -18 -14 -25 -14 -7 0 -11 -8 -9
-18 3 -15 -8 -21 -29 -19 -4 1 -12 -12 -19 -28 -7 -17 -17 -30 -22 -30 -5 0
-6 -5 -2 -12 4 -7 3 -8 -4 -4 -8 5 -5 16 10 37 19 25 20 32 8 39 -11 7 -11 11
-1 24 8 9 10 16 6 16 -4 0 17 27 45 60 62 72 79 72 25 1z m-105 -6 c0 -1 -6
-8 -14 -15 -12 -9 -15 -8 -13 8 0 12 6 18 14 15 7 -3 13 -6 13 -8z m160 -49
c0 -2 -8 -10 -17 -17 -16 -13 -17 -12 -4 4 13 16 21 21 21 13z m-170 -69 c0
-2 -9 -12 -20 -22 -24 -21 -27 -14 -4 9 15 15 24 20 24 13z m68 -44 c-27 -47
-28 -49 -28 -37 0 11 38 74 45 74 2 0 -5 -17 -17 -37z m5367 -33 c3 -6 -1 -7
-9 -4 -18 7 -21 14 -7 14 6 0 13 -4 16 -10z m125 -101 c0 -14 -17 -10 -23 5
-4 10 -1 13 9 9 7 -3 14 -9 14 -14z m967 5 c-3 -3 -12 -4 -19 -1 -8 3 -5 6 6
6 11 1 17 -2 13 -5z m-1067 -44 c0 -5 -2 -10 -4 -10 -3 0 -8 5 -11 10 -3 6 -1
10 4 10 6 0 11 -4 11 -10z m69 4 c17 -4 28 -10 25 -15 -3 -5 3 -9 12 -9 10 0
14 -3 11 -7 -4 -3 -17 -1 -30 5 -12 6 -35 15 -52 20 -34 12 -13 15 34 6z
m1048 -150 c-3 -3 -12 -4 -19 -1 -8 3 -5 6 6 6 11 1 17 -2 13 -5z m-1100 -30
c-3 -3 -12 -4 -19 -1 -8 3 -5 6 6 6 11 1 17 -2 13 -5z m433 -18 c0 -3 -4 -8
-10 -11 -5 -3 -10 -1 -10 4 0 6 5 11 10 11 6 0 10 -2 10 -4z m484 -14 c3 -5
-8 -6 -25 -4 -16 2 -29 6 -29 8 0 8 49 4 54 -4z m-414 -12 c-20 -13 -33 -13
-25 0 3 6 14 10 23 10 15 0 15 -2 2 -10z m95 -10 c-3 -5 -18 -10 -33 -10 -21
0 -24 2 -12 10 20 13 53 13 45 0z m115 -6 c0 -2 -11 -3 -24 -2 -14 1 -23 5
-20 9 4 7 44 0 44 -7z m-743 0 c-3 -3 -12 -4 -19 -1 -8 3 -5 6 6 6 11 1 17 -2
13 -5z m-62 -14 c-3 -5 -14 -10 -23 -9 -14 0 -13 2 3 9 27 11 27 11 20 0z
m-35 -24 c0 -2 -7 -6 -15 -10 -8 -3 -15 -1 -15 4 0 6 7 10 15 10 8 0 15 -2 15
-4z m-103 -32 c-3 -3 -12 -4 -19 -1 -8 3 -5 6 6 6 11 1 17 -2 13 -5z m-4572
-364 c-3 -5 -11 -10 -16 -10 -6 0 -7 5 -4 10 3 6 11 10 16 10 6 0 7 -4 4 -10z
m1189 -95 c-9 -14 -18 -25 -21 -25 -5 0 5 18 20 38 17 22 18 13 1 -13z m-120
3 c-5 -8 -2 -9 10 -5 10 4 15 3 11 -4 -4 -5 -16 -7 -26 -4 -11 4 -26 3 -32 -2
-7 -4 -4 0 6 10 22 19 42 23 31 5z m-70 -33 c-4 -9 -15 -20 -25 -26 -11 -5
-19 -14 -19 -20 0 -6 7 -6 20 1 19 10 20 10 8 -9 -8 -13 -16 -17 -24 -11 -6 6
-14 7 -18 3 -4 -4 -2 6 4 22 10 29 35 55 52 55 4 0 5 -7 2 -15z m-244 -60 c-7
-9 -15 -13 -17 -11 -7 7 7 26 19 26 6 0 6 -6 -2 -15z m106 -7 c4 -7 3 -8 -4
-4 -7 4 -12 1 -12 -8 0 -10 -9 -16 -26 -16 -14 0 -23 -4 -20 -9 3 -5 -1 -12
-10 -15 -10 -4 -13 -2 -9 7 4 6 -1 3 -10 -8 -9 -11 -21 -19 -26 -17 -5 1 -9
-2 -9 -8 0 -5 -7 -10 -15 -10 -8 0 -15 -4 -15 -9 0 -16 -71 -86 -87 -86 -9 0
-17 -6 -19 -13 -1 -7 0 -8 3 -2 2 5 9 10 15 10 6 0 6 -6 -2 -15 -7 -8 -9 -15
-5 -15 5 0 35 29 68 65 33 36 65 65 70 65 6 0 1 -10 -11 -23 -12 -13 -22 -27
-22 -32 0 -12 55 46 55 59 1 6 6 10 11 9 6 -1 34 16 64 39 29 22 50 33 47 24
-5 -11 -1 -15 13 -13 11 2 23 6 26 10 12 11 21 8 21 -8 0 -8 -7 -14 -16 -13
-9 2 -15 -3 -13 -10 1 -7 -14 -22 -33 -33 -19 -12 -32 -25 -29 -30 3 -5 10 -6
16 -3 7 5 8 2 3 -5 -4 -8 -17 -10 -31 -7 -17 5 -24 2 -24 -8 0 -8 -5 -18 -12
-22 -7 -5 -9 0 -6 14 6 20 4 20 -31 -5 l-36 -27 29 32 c36 39 16 43 -24 5 -21
-19 -26 -31 -19 -39 7 -8 2 -18 -16 -33 -15 -11 -24 -24 -21 -29 3 -5 -8 -22
-25 -38 -18 -17 -28 -22 -24 -12 4 9 13 19 21 22 9 3 12 11 8 17 -4 8 -9 7
-15 -2 -7 -11 -9 -11 -9 -1 0 7 13 20 30 31 32 19 31 37 -1 20 -11 -5 -19 -6
-19 -2 0 4 -7 0 -14 -10 -8 -10 -12 -26 -9 -36 3 -10 -1 -22 -7 -26 -9 -5 -10
-1 -5 15 5 17 4 21 -5 15 -8 -5 -11 -4 -7 2 4 6 0 16 -8 23 -12 10 -18 10 -30
0 -9 -8 -15 -8 -15 -2 0 6 12 20 26 31 14 11 23 24 20 29 -3 5 1 9 9 9 8 0 12
-5 9 -11 -3 -6 1 -3 9 7 9 10 18 18 22 17 4 -1 10 2 13 6 4 4 1 4 -5 0 -7 -4
-13 -2 -13 4 0 6 8 13 18 17 9 3 29 17 43 30 36 33 121 91 136 92 6 1 15 -4
19 -11z m-712 -52 c-3 -9 -10 -16 -15 -16 -5 0 -4 9 3 20 14 22 21 20 12 -4z
m340 -8 c-4 -7 -14 -22 -23 -32 -9 -11 -11 -17 -6 -13 6 3 16 -2 22 -12 10
-15 7 -23 -18 -47 -16 -15 -29 -24 -29 -20 0 5 11 17 25 28 14 11 23 24 20 29
-9 13 -25 11 -22 -3 1 -7 -3 -12 -10 -13 -6 0 -30 -17 -52 -38 -45 -41 -55
-38 -17 5 12 15 26 25 30 21 3 -3 6 0 6 7 0 7 8 19 18 27 9 8 11 12 5 8 -25
-12 -13 14 18 39 34 29 44 33 33 14z m156 -8 c0 -5 -5 -10 -11 -10 -5 0 -7 5
-4 10 3 6 8 10 11 10 2 0 4 -4 4 -10z m-470 -4 c0 -2 -7 -7 -16 -10 -8 -3 -12
-2 -9 4 6 10 25 14 25 6z m-73 -28 c-3 -8 -6 -5 -6 6 -1 11 2 17 5 13 3 -3 4
-12 1 -19z m537 -19 c-10 -11 -23 -18 -30 -15 -7 3 -20 -7 -29 -20 -9 -14 -19
-23 -23 -20 -7 8 49 67 58 61 5 -3 11 2 14 11 3 8 11 12 17 9 7 -5 4 -14 -7
-26z m320 13 c3 -5 -1 -9 -9 -9 -8 0 -15 4 -15 9 0 4 4 8 9 8 6 0 12 -4 15 -8z
m-434 -37 c-11 -13 -10 -19 4 -34 13 -14 14 -21 5 -27 -8 -4 -10 -3 -5 4 13
22 -13 12 -28 -10 -10 -13 -16 -17 -16 -9 0 11 -5 10 -20 -4 -11 -10 -17 -23
-13 -29 4 -6 -1 -5 -10 3 -16 13 -16 15 5 33 13 11 22 24 20 30 -1 5 6 4 17
-1 15 -8 20 -7 25 5 4 12 2 15 -9 10 -21 -8 -19 6 6 33 23 24 40 21 19 -4z
m-370 -13 c0 -10 -7 -19 -15 -19 -18 0 -19 4 -2 22 16 19 17 18 17 -3z m688
-7 c-6 -14 -15 -25 -20 -25 -5 0 -1 11 8 25 9 14 18 25 20 25 2 0 -2 -11 -8
-25z m42 15 c0 -5 -5 -10 -11 -10 -5 0 -7 5 -4 10 3 6 8 10 11 10 2 0 4 -4 4
-10z m40 -25 c-7 -9 -15 -13 -18 -10 -3 3 -18 -6 -33 -21 -19 -19 -29 -22 -34
-13 -6 8 -4 10 5 4 10 -6 12 -4 7 9 -4 9 -3 15 2 12 5 -3 14 1 21 10 7 8 19
13 26 10 7 -3 16 -1 19 4 4 6 9 10 12 10 3 0 0 -7 -7 -15z m-152 -18 c1 -17
-7 -28 -24 -38 -14 -7 -35 -26 -46 -41 -10 -15 -24 -28 -31 -28 -6 0 8 19 31
43 23 24 39 47 35 51 -5 4 -1 6 7 4 8 -1 15 3 16 10 4 30 9 30 12 -1z m225 1
c-4 -7 -8 -19 -8 -27 0 -8 -7 -17 -15 -19 -13 -5 -13 -3 -1 11 7 10 10 17 6
17 -4 0 -2 7 5 15 15 18 24 20 13 3z m87 -2 c0 -2 -8 -10 -17 -17 -16 -13 -17
-12 -4 4 13 16 21 21 21 13z m-279 -25 c-6 -10 -7 -22 -3 -26 4 -5 1 -5 -6 -1
-7 4 -24 1 -37 -8 -28 -18 -39 -20 -30 -6 6 9 73 57 83 59 1 1 -2 -7 -7 -18z
m-401 -1 c0 -5 -5 -10 -11 -10 -5 0 -7 5 -4 10 3 6 8 10 11 10 2 0 4 -4 4 -10z
m490 -15 c0 -8 -7 -15 -17 -15 -9 0 -13 -3 -10 -7 4 -3 0 -15 -10 -25 -23 -26
-4 -23 24 4 23 22 73 33 73 17 0 -14 -20 -21 -20 -7 -1 7 -12 0 -25 -17 -14
-16 -25 -24 -25 -16 0 11 -3 11 -15 1 -8 -7 -15 -19 -15 -27 0 -8 -4 -12 -8
-9 -5 3 -19 -4 -30 -15 -12 -11 -22 -15 -22 -9 0 5 0 12 0 15 0 3 1 4 3 3 6
-4 47 24 47 34 0 7 -5 6 -15 -2 -9 -7 -18 -10 -22 -7 -3 4 -13 1 -22 -5 -9 -7
-5 0 9 16 17 20 21 30 13 33 -10 4 -9 8 1 19 16 15 27 18 25 7 -5 -33 4 -34
27 -5 29 36 34 39 34 17z m267 -10 c-15 -14 -25 -25 -21 -25 3 0 1 -7 -6 -15
-13 -15 -35 -21 -26 -7 2 4 1 13 -3 20 -5 9 -12 8 -27 -3 -15 -12 -16 -14 -2
-9 29 10 13 -35 -27 -76 -19 -20 -32 -39 -28 -43 10 -11 -30 -37 -47 -31 -8 3
-12 2 -8 -1 6 -6 -26 -45 -37 -45 -2 0 -11 14 -20 30 -9 17 -11 30 -5 30 5 0
10 -6 10 -14 0 -8 5 -18 10 -21 12 -7 9 39 -3 51 -3 4 -22 -5 -42 -20 -25 -19
-33 -22 -28 -10 5 13 3 15 -7 9 -9 -5 -11 -4 -6 3 4 7 2 12 -5 12 -7 0 -9 3
-6 6 4 4 13 1 22 -6 13 -11 19 -8 40 14 20 22 25 24 33 11 7 -14 12 -13 35 5
15 12 26 24 26 28 -3 19 2 23 15 13 11 -9 16 -9 22 0 5 8 3 9 -6 4 -8 -5 -11
-3 -8 6 3 8 10 13 16 12 6 -2 16 5 21 16 14 26 87 80 78 58 -9 -23 6 -21 28 3
10 11 23 20 29 20 6 0 -2 -12 -17 -25z m-612 6 c3 -6 -4 -15 -15 -21 -20 -11
-21 -10 -10 9 12 23 16 25 25 12z m458 -12 c-4 -12 -11 -18 -20 -15 -8 3 -12
2 -9 -3 3 -4 -8 -21 -24 -36 -17 -16 -30 -26 -30 -22 0 4 -11 0 -25 -9 -14 -9
-25 -20 -25 -26 0 -5 10 0 22 12 19 18 23 18 38 5 9 -8 20 -12 23 -8 4 3 7 4
7 1 0 -3 -8 -12 -17 -19 -10 -8 -14 -9 -10 -2 15 25 -15 23 -50 -4 -23 -17
-32 -21 -23 -9 14 18 13 18 -10 11 -22 -7 -20 -4 10 21 19 16 40 34 45 41 9
10 97 83 102 83 0 0 -1 -9 -4 -21z m-600 -19 c-10 -11 -19 -20 -21 -20 -1 0 2
9 8 20 6 11 15 20 20 20 6 0 2 -9 -7 -20z m-183 0 c0 -5 -5 -10 -11 -10 -5 0
-7 5 -4 10 3 6 8 10 11 10 2 0 4 -4 4 -10z m550 6 c0 -2 -8 -10 -17 -17 -16
-13 -17 -12 -4 4 13 16 21 21 21 13z m620 -5 c0 -5 -7 -12 -16 -15 -14 -5 -15
-4 -4 9 14 17 20 19 20 6z m-404 -36 c-43 -38 -46 -40 -46 -25 0 8 66 58 80
59 3 1 -13 -15 -34 -34z m-406 14 c0 -15 -18 -19 -23 -6 -3 8 1 14 9 14 8 0
14 -4 14 -8z m137 -1 c0 -7 -14 -24 -31 -38 l-31 -25 29 38 c32 41 33 42 33
25z m-110 -5 c-4 -3 -1 -13 6 -21 10 -13 9 -14 -1 -8 -8 5 -19 1 -28 -10 -13
-18 -14 -18 -7 1 7 22 23 45 31 45 3 0 2 -3 -1 -7z m63 -17 c0 -2 -8 -10 -17
-17 -16 -13 -17 -12 -4 4 13 16 21 21 21 13z m463 -28 c-20 -22 -73 -53 -73
-42 0 4 -7 0 -17 -7 -15 -13 -15 -12 -2 9 8 12 19 20 26 18 7 -3 15 0 19 6 4
7 3 8 -4 4 -7 -4 -12 -2 -12 4 0 6 10 8 28 4 15 -4 24 -3 20 1 -9 9 14 35 25
28 5 -3 0 -14 -10 -25z m-439 -13 c-4 -8 -11 -15 -16 -15 -6 0 -5 6 2 15 7 8
14 15 16 15 2 0 1 -7 -2 -15z m66 -18 c0 -2 -15 -16 -32 -33 l-33 -29 29 33
c28 30 36 37 36 29z m-98 -19 c-14 -14 -44 -20 -36 -7 3 5 9 7 14 4 5 -3 11
-1 15 5 3 5 9 10 13 10 3 0 1 -5 -6 -12z m152 -3 c-4 -8 -10 -15 -15 -15 -5 0
-18 -9 -29 -20 -11 -11 -20 -17 -20 -12 0 6 60 61 67 62 1 0 0 -7 -3 -15z
m-123 -18 c-10 -9 -11 -8 -5 6 3 10 9 15 12 12 3 -3 0 -11 -7 -18z m207 -50
c-1 -1 -14 -11 -28 -22 l-25 -20 19 23 c20 23 10 31 -14 10 -8 -7 -4 -1 10 15
21 24 25 25 33 11 5 -8 7 -16 5 -17z m82 -2 c-7 -9 -15 -13 -17 -11 -7 7 7 26
19 26 6 0 6 -6 -2 -15z m-97 -37 c-4 -7 -8 -16 -9 -20 -1 -5 -2 -11 -3 -14 0
-3 -6 -2 -12 1 -7 5 -4 14 7 26 19 22 29 25 17 7z m-48 -18 c-3 -5 -12 -10
-18 -10 -7 0 -6 4 3 10 19 12 23 12 15 0z m1635 -40 c0 -5 -4 -10 -10 -10 -5
0 -10 5 -10 10 0 6 5 10 10 10 6 0 10 -4 10 -10z m2 -74 c-15 -24 -28 -43 -30
-41 -6 6 38 85 48 85 5 0 -3 -20 -18 -44z m-692 30 c0 -3 -4 -8 -10 -11 -5 -3
-10 -1 -10 4 0 6 5 11 10 11 6 0 10 -2 10 -4z m-706 -33 c4 -10 -1 -23 -14
-35 -11 -10 -20 -14 -20 -8 0 6 -5 8 -11 4 -6 -3 -3 8 5 25 18 35 31 39 40 14z
m1436 2 c-7 -8 -17 -15 -22 -15 -6 0 -5 7 2 15 7 8 17 15 22 15 6 0 5 -7 -2
-15z m-575 -32 c-28 -20 -41 -16 -19 6 10 10 23 16 28 13 5 -3 1 -11 -9 -19z
m492 7 c-29 -36 -79 -83 -69 -64 6 11 18 26 26 33 9 8 13 17 10 22 -8 14 3 25
25 25 16 0 18 -3 8 -16z m103 11 c0 -6 -12 -23 -26 -38 -15 -15 -21 -21 -15
-12 6 9 7 20 3 24 -4 5 -2 5 5 1 7 -3 14 2 18 14 7 21 15 27 15 11z m-57 -26
c-3 -9 -8 -14 -10 -11 -3 3 -2 9 2 15 9 16 15 13 8 -4z m-93 1 c0 -2 -8 -10
-17 -17 -16 -13 -17 -12 -4 4 13 16 21 21 21 13z m-1200 -150 c0 -2 -7 -9 -15
-16 -13 -11 -14 -10 -9 4 5 14 24 23 24 12z m1131 -149 c62 -17 77 -30 95 -93
16 -58 11 -114 -10 -114 -46 0 -126 92 -150 173 -16 54 -15 55 65 34z m291
-268 c151 -119 365 -169 721 -169 162 0 196 -3 216 -16 32 -23 17 -30 -108
-49 -278 -42 -599 5 -821 120 -87 45 -135 120 -92 144 26 15 28 14 84 -30z
m-865 -91 c-3 -8 -6 -5 -6 6 -1 11 2 17 5 13 3 -3 4 -12 1 -19z m195 -190 c-7
-7 -12 -8 -12 -2 0 14 12 26 19 19 2 -3 -1 -11 -7 -17z m70 -44 c-9 -16 -10
-14 -9 8 1 15 6 23 11 18 4 -4 4 -16 -2 -26z m327 -177 c0 -8 -2 -8 -6 1 -4
10 -8 10 -21 0 -15 -12 -16 -11 -3 4 14 19 32 15 30 -5z m271 -42 c-30 -49
-34 -44 -8 11 13 25 24 40 26 35 2 -6 -6 -27 -18 -46z m47 16 c-7 -17 -16 -28
-20 -24 -4 3 -7 -3 -7 -15 0 -12 -4 -22 -10 -22 -11 0 -3 24 17 56 7 11 10 24
6 29 -5 4 -2 5 5 1 7 -4 12 -2 12 5 0 7 2 10 5 7 3 -3 -1 -19 -8 -37z m-257 8
c-7 -11 -14 -19 -16 -16 -7 7 7 37 17 37 6 0 5 -9 -1 -21z m-403 -274 c0 -8
-4 -12 -9 -9 -5 3 -6 10 -3 15 9 13 12 11 12 -6z m116 -17 c-5 -7 -15 -26 -22
-43 -13 -29 -13 -30 8 -11 11 10 19 23 18 28 -1 6 6 12 16 13 15 3 15 0 -4
-26 -20 -29 -14 -40 9 -17 17 17 16 -13 0 -32 -7 -8 -4 -7 8 3 11 9 24 17 27
17 11 0 3 -24 -13 -38 -13 -12 -13 -12 3 -4 10 5 27 22 38 38 18 26 20 26 14
5 -5 -16 -4 -21 4 -17 8 5 8 0 2 -18 -8 -18 -6 -26 4 -30 8 -3 17 0 21 6 4 6
3 8 -4 5 -6 -5 -8 0 -5 13 7 28 22 35 16 8 -5 -23 -5 -23 11 -3 10 11 15 15
12 9 -3 -7 1 -15 10 -18 9 -3 12 -11 8 -18 -5 -8 -2 -9 12 -4 14 5 16 4 8 -4
-6 -6 -21 -12 -33 -15 -23 -4 -23 -4 -6 15 15 17 15 20 3 20 -8 0 -20 -11 -26
-24 -10 -22 -9 -24 9 -21 10 2 19 -1 19 -7 0 -7 6 -6 15 2 18 15 20 0 3 -20
-7 -8 -3 -6 10 4 26 22 28 15 6 -19 -10 -15 -12 -25 -5 -25 6 0 11 6 11 13 0
8 11 24 25 37 27 26 34 16 10 -16 -22 -29 -18 -39 6 -13 11 13 18 18 14 12
-13 -26 -12 -48 1 -61 11 -10 14 -10 14 1 0 7 -6 19 -12 27 -11 12 -10 12 4 1
9 -7 23 -9 30 -5 10 6 10 5 2 -7 -9 -11 -8 -17 4 -29 14 -13 15 -13 10 1 -4 9
-1 16 7 16 9 0 10 -8 4 -31 -12 -43 -11 -45 9 -15 14 22 19 24 29 13 7 -7 9
-15 4 -18 -5 -3 -11 -14 -14 -25 -6 -23 18 -18 27 5 9 23 23 16 29 -13 5 -26
4 -26 -9 -8 -8 10 -14 14 -14 9 0 -6 3 -14 8 -18 4 -4 7 -18 7 -29 0 -13 5
-21 13 -19 10 2 12 -4 7 -20 l-7 -23 17 23 c9 12 23 22 31 22 9 0 12 5 8 12
-5 7 -3 8 5 4 7 -5 10 -15 7 -23 -4 -10 -2 -13 8 -10 18 7 26 -13 20 -45 -5
-21 -4 -22 9 -5 13 16 15 16 21 2 3 -9 -1 -23 -9 -31 -22 -23 -18 -30 5 -9 11
10 20 24 20 31 0 7 4 16 10 19 7 4 7 -3 0 -19 -5 -14 -7 -26 -3 -26 3 0 -2 -9
-12 -20 -10 -11 -13 -20 -7 -20 7 0 12 5 12 10 0 6 5 10 11 10 7 0 9 -10 5
-25 -8 -33 0 -32 19 3 l15 27 -3 -25 c-2 -14 -8 -35 -15 -46 -6 -12 -9 -24 -6
-27 8 -7 33 16 28 25 -2 4 1 10 7 14 8 4 9 -3 4 -27 -3 -19 -3 -29 2 -24 22
28 29 12 16 -38 -7 -28 -13 -59 -13 -68 0 -9 -7 -22 -15 -29 -8 -7 -15 -17
-15 -23 0 -27 37 44 57 108 12 38 22 62 22 53 1 -9 -3 -28 -9 -42 -8 -21 -7
-24 7 -19 14 5 15 1 10 -26 -4 -18 -17 -47 -29 -64 -12 -17 -17 -27 -10 -23
16 10 15 -5 -2 -27 -14 -18 -15 -18 -25 0 -6 10 -11 12 -11 6 0 -15 -36 -17
-45 -3 -3 5 -13 6 -21 3 -18 -7 -104 11 -189 40 -80 27 -274 149 -277 174 -1
4 -14 16 -29 25 -16 10 -29 22 -29 27 0 5 -6 16 -13 23 -23 24 -78 120 -80
139 -1 11 -4 19 -8 19 -11 0 -29 50 -29 80 0 17 -5 30 -11 30 -7 0 -10 15 -7
40 2 26 -1 41 -9 44 -15 6 -6 35 16 54 14 11 13 12 -6 3 -29 -14 -32 -14 -29
5 1 9 11 23 22 31 18 14 18 15 -3 8 -17 -5 -23 -2 -23 9 0 8 5 18 10 21 6 3
10 0 10 -7 0 -7 7 -2 16 11 13 18 18 20 25 10 4 -8 3 -20 -4 -29 -6 -8 0 -6
13 5 14 11 28 24 31 29 4 4 9 4 13 -2 3 -5 -4 -22 -16 -38 -13 -15 -17 -25
-10 -21 6 5 26 28 42 53 17 24 34 44 37 44 3 0 1 -6 -4 -12z m-71 -5 c-6 -2
-10 -9 -7 -13 3 -5 1 -11 -5 -15 -5 -3 -10 0 -10 8 0 17 10 27 24 26 6 0 5 -3
-2 -6z m303 -140 c-2 -10 -4 -19 -4 -21 -1 -2 -6 0 -11 3 -8 5 -7 11 1 21 15
18 18 18 14 -3z m228 -198 c-3 -9 -8 -14 -10 -11 -3 3 -2 9 2 15 9 16 15 13 8
-4z m-17 -43 c-4 -3 -13 -7 -21 -8 -11 -2 -12 3 -3 22 10 22 13 23 21 9 5 -9
6 -19 3 -23z m245 -275 c-10 -9 -11 -8 -5 6 3 10 9 15 12 12 3 -3 0 -11 -7
-18z m34 -67 c-4 -12 -9 -19 -12 -16 -4 3 -13 0 -21 -7 -13 -10 -14 -9 -7 3
11 20 39 48 43 44 2 -1 1 -12 -3 -24z m-27 -73 c-8 -25 -17 -37 -30 -37 -22 0
-23 7 -3 26 18 18 20 38 3 28 -7 -4 -8 -3 -4 5 4 6 11 9 16 6 5 -3 12 0 15 6
13 20 14 3 3 -34z m35 -9 c-5 -26 -23 -40 -23 -18 0 10 23 51 26 47 1 -1 0
-14 -3 -29z m23 -25 c-11 -11 -17 4 -9 23 7 18 8 18 11 1 2 -10 1 -21 -2 -24z
m-2446 -707 c0 -3 -4 -8 -10 -11 -5 -3 -10 -1 -10 4 0 6 5 11 10 11 6 0 10 -2
10 -4z m-50 -110 c0 -8 -7 -16 -15 -20 -13 -4 -14 -2 -5 14 13 23 20 26 20 6z"/>
<path d="M4181 5804 c0 -11 3 -14 6 -6 3 7 2 16 -1 19 -3 4 -6 -2 -5 -13z"/>
<path d="M2770 3734 c-5 -12 -16 -24 -26 -28 -14 -5 -15 -4 -4 9 22 26 5 26
-20 0 -13 -14 -21 -28 -18 -31 9 -8 58 -12 53 -4 -5 8 44 56 53 52 3 -1 7 3 8
11 3 22 -38 14 -46 -9z"/>
<path d="M2609 3638 c-6 -21 -5 -38 1 -38 5 0 8 9 7 20 -1 17 -5 26 -8 18z"/>
<path d="M2570 3605 c-11 -13 -10 -14 4 -9 9 3 16 10 16 15 0 13 -6 11 -20 -6z"/>
<path d="M2799 3513 c-13 -16 -12 -17 4 -4 9 7 17 15 17 17 0 8 -8 3 -21 -13z"/>
<path d="M2720 3495 c-8 -9 -8 -15 -2 -15 12 0 26 19 19 26 -2 2 -10 -2 -17
-11z"/>
<path d="M2958 3479 c-10 -5 -18 -16 -18 -24 0 -8 -20 -26 -44 -40 -42 -25
-61 -47 -49 -58 3 -3 16 6 30 21 14 15 20 19 13 10 -9 -13 -9 -18 -1 -18 6 0
15 10 20 23 5 12 26 39 46 60 37 36 37 47 3 26z"/>
<path d="M2960 3135 c-11 -13 -10 -14 4 -9 9 3 16 10 16 15 0 13 -6 11 -20 -6z"/>
<path d="M4096 1633 c-6 -14 -5 -15 5 -6 7 7 10 15 7 18 -3 3 -9 -2 -12 -12z"/>
<path d="M4356 1433 c-6 -14 -5 -15 5 -6 7 7 10 15 7 18 -3 3 -9 -2 -12 -12z"/>
<path d="M4379 1363 c-13 -16 -12 -17 4 -4 16 13 21 21 13 21 -2 0 -10 -8 -17
-17z"/>
<path d="M4485 1301 c3 -5 1 -12 -5 -16 -5 -3 -10 -12 -10 -18 0 -7 5 -4 11 6
6 9 14 15 20 12 5 -3 6 1 3 9 -3 9 -10 16 -16 16 -5 0 -7 -4 -3 -9z"/>
<path d="M7516 8765 c-3 -8 -1 -15 3 -15 5 0 11 7 15 15 3 8 1 15 -3 15 -5 0
-11 -7 -15 -15z"/>
<path d="M7908 8761 c-26 -15 -37 -31 -20 -31 10 1 56 40 51 44 -2 1 -16 -4
-31 -13z"/>
<path d="M7586 8753 c-6 -14 -5 -15 5 -6 7 7 10 15 7 18 -3 3 -9 -2 -12 -12z"/>
<path d="M7776 8744 c-22 -21 -20 -27 4 -12 11 7 20 16 20 20 0 12 -7 10 -24
-8z"/>
<path d="M7189 8723 c-13 -16 -12 -17 4 -4 16 13 21 21 13 21 -2 0 -10 -8 -17
-17z"/>
<path d="M7995 8714 c-30 -25 -30 -25 -3 -13 15 6 29 18 32 25 7 18 6 18 -29
-12z"/>
<path d="M7955 8720 c-8 -13 5 -13 25 0 13 8 13 10 -2 10 -9 0 -20 -4 -23 -10z"/>
<path d="M8109 8722 c11 -8 11 -10 0 -15 -8 -4 -2 -5 13 -4 30 3 51 17 25 17
-8 0 -24 3 -34 6 -13 4 -15 3 -4 -4z"/>
<path d="M2298 8563 c7 -3 16 -2 19 1 4 3 -2 6 -13 5 -11 0 -14 -3 -6 -6z"/>
<path d="M7110 8480 c-9 -6 -10 -10 -3 -10 6 0 15 5 18 10 8 12 4 12 -15 0z"/>
<path d="M2255 8450 c4 -6 11 -8 16 -5 14 9 11 15 -7 15 -8 0 -12 -5 -9 -10z"/>
<path d="M2248 8423 c7 -3 16 -2 19 1 4 3 -2 6 -13 5 -11 0 -14 -3 -6 -6z"/>
<path d="M7180 8280 c-13 -8 -13 -10 2 -10 9 0 20 5 23 10 8 13 -5 13 -25 0z"/>
<path d="M6978 8173 c7 -3 16 -2 19 1 4 3 -2 6 -13 5 -11 0 -14 -3 -6 -6z"/>
<path d="M8990 8150 c0 -5 5 -10 10 -10 6 0 10 5 10 10 0 6 -4 10 -10 10 -5 0
-10 -4 -10 -10z"/>
<path d="M7218 8103 c6 -2 18 -2 25 0 6 3 1 5 -13 5 -14 0 -19 -2 -12 -5z"/>
<path d="M2074 7868 l-19 -23 23 19 c21 18 27 26 19 26 -2 0 -12 -10 -23 -22z"/>
<path d="M2000 7630 c-8 -5 -10 -10 -5 -10 6 0 17 5 25 10 8 5 11 10 5 10 -5
0 -17 -5 -25 -10z"/>
<path d="M1345 7560 c-3 -5 -2 -10 4 -10 5 0 13 5 16 10 3 6 2 10 -4 10 -5 0
-13 -4 -16 -10z"/>
<path d="M985 7550 c-16 -7 -17 -9 -3 -9 9 -1 20 4 23 9 7 11 7 11 -20 0z"/>
<path d="M940 7540 c-13 -8 -12 -10 3 -10 9 0 17 5 17 10 0 12 -1 12 -20 0z"/>
<path d="M1146 7541 c-4 -5 3 -7 14 -4 23 6 26 13 6 13 -8 0 -17 -4 -20 -9z"/>
<path d="M1315 7510 c-3 -5 -1 -10 4 -10 6 0 11 5 11 10 0 6 -2 10 -4 10 -3 0
-8 -4 -11 -10z"/>
<path d="M760 7500 c0 -5 6 -10 14 -10 8 0 18 5 21 10 3 6 -3 10 -14 10 -12 0
-21 -4 -21 -10z"/>
<path d="M1060 7485 c-13 -14 -28 -25 -33 -25 -5 0 -17 -8 -26 -17 -16 -18
-73 -53 -85 -53 -4 0 -2 10 4 23 10 20 10 20 -3 5 -8 -10 -18 -18 -24 -18 -5
0 -18 -7 -29 -15 -18 -14 -18 -14 4 -10 12 2 27 7 32 10 6 3 10 2 10 -4 0 -5
-9 -13 -21 -16 -11 -4 -18 -9 -16 -11 7 -7 57 18 57 28 0 4 7 8 15 8 8 0 15 5
15 10 0 6 6 10 13 10 12 0 127 99 116 100 -3 0 -16 -11 -29 -25z"/>
<path d="M1476 7495 c-11 -8 -17 -17 -14 -20 2 -3 13 4 23 15 21 23 18 25 -9
5z"/>
<path d="M870 7490 c0 -5 5 -10 10 -10 6 0 10 5 10 10 0 6 -4 10 -10 10 -5 0
-10 -4 -10 -10z"/>
<path d="M970 7490 c-9 -6 -10 -10 -3 -10 6 0 15 5 18 10 8 12 4 12 -15 0z"/>
<path d="M1008 7493 c7 -3 16 -2 19 1 4 3 -2 6 -13 5 -11 0 -14 -3 -6 -6z"/>
<path d="M1132 7480 c-31 -14 -40 -23 -36 -35 8 -19 35 -16 42 5 5 13 3 13
-14 0 -18 -14 -18 -14 -5 2 7 10 17 15 22 12 5 -3 9 0 9 5 0 6 9 11 21 11 13
0 18 -4 13 -12 -4 -7 -3 -8 4 -4 7 4 12 11 12 16 0 17 -29 17 -68 0z"/>
<path d="M1969 7473 c-13 -16 -12 -17 4 -4 9 7 17 15 17 17 0 8 -8 3 -21 -13z"/>
<path d="M810 7471 c0 -5 -8 -12 -17 -14 -14 -4 -15 -5 -2 -6 8 0 24 6 35 14
17 13 17 14 2 15 -10 0 -18 -4 -18 -9z"/>
<path d="M917 7463 c3 -8 8 -11 11 -9 3 3 11 1 19 -6 7 -6 16 -8 20 -4 3 3 1
6 -6 6 -7 0 -10 4 -7 9 3 5 -5 11 -18 13 -18 4 -23 1 -19 -9z"/>
<path d="M1230 7470 c0 -5 4 -10 9 -10 6 0 13 5 16 10 3 6 -1 10 -9 10 -9 0
-16 -4 -16 -10z"/>
<path d="M1424 7464 c-18 -14 -18 -15 4 -4 12 6 22 13 22 15 0 8 -5 6 -26 -11z"/>
<path d="M1569 7463 c-13 -16 -12 -17 4 -4 16 13 21 21 13 21 -2 0 -10 -8 -17
-17z"/>
<path d="M658 7453 c7 -3 16 -2 19 1 4 3 -2 6 -13 5 -11 0 -14 -3 -6 -6z"/>
<path d="M751 7446 c-9 -10 -8 -15 2 -19 8 -3 13 3 13 14 0 23 0 23 -15 5z"/>
<path d="M1460 7445 c-14 -8 -20 -14 -14 -15 5 0 19 7 30 15 24 18 16 19 -16
0z"/>
<path d="M854 7435 c-10 -8 -14 -14 -9 -15 15 0 40 18 34 24 -3 3 -14 -1 -25
-9z"/>
<path d="M890 7440 c0 -5 5 -10 11 -10 5 0 7 5 4 10 -3 6 -8 10 -11 10 -2 0
-4 -4 -4 -10z"/>
<path d="M1202 7441 c-11 -6 -10 -10 4 -15 9 -3 19 -4 22 -1 3 3 -1 5 -9 5
-11 0 -11 2 1 10 8 5 11 10 5 10 -5 0 -16 -4 -23 -9z"/>
<path d="M1356 7410 c-22 -17 -35 -30 -28 -30 6 0 14 5 17 10 4 6 9 9 13 7 4
-2 17 7 29 20 31 32 16 28 -31 -7z"/>
<path d="M1505 7419 c-4 -6 -5 -12 -2 -15 2 -3 7 2 10 11 7 17 1 20 -8 4z"/>
<path d="M680 7410 c0 -13 11 -13 30 0 12 8 11 10 -7 10 -13 0 -23 -4 -23 -10z"/>
<path d="M692 7370 c2 -8 -2 -14 -9 -13 -7 2 -17 -6 -23 -17 -14 -25 -2 -25
29 1 19 16 22 22 12 32 -10 9 -12 9 -9 -3z"/>
<path d="M1409 7353 c-13 -17 -13 -17 6 -3 11 8 22 16 24 17 2 2 0 3 -6 3 -6
0 -17 -8 -24 -17z"/>
<path d="M1500 7350 c-13 -11 -21 -22 -18 -25 2 -3 15 6 28 20 28 30 22 33
-10 5z"/>
<path d="M975 7350 c-3 -5 -1 -10 4 -10 6 0 11 5 11 10 0 6 -2 10 -4 10 -3 0
-8 -4 -11 -10z"/>
<path d="M565 7329 c-4 -6 -16 -14 -28 -18 -20 -7 -19 -8 6 -13 16 -3 24 -1
20 5 -3 6 2 16 12 24 11 7 14 13 8 13 -7 0 -15 -5 -18 -11z"/>
<path d="M1430 7304 c-46 -30 -73 -54 -66 -61 5 -6 26 8 76 50 41 35 36 41
-10 11z"/>
<path d="M1580 7275 c-14 -8 -20 -14 -14 -15 5 0 19 7 30 15 24 18 16 19 -16
0z"/>
<path d="M1485 7270 c-3 -5 -2 -10 4 -10 5 0 13 5 16 10 3 6 2 10 -4 10 -5 0
-13 -4 -16 -10z"/>
<path d="M455 7260 c-3 -5 -2 -10 4 -10 5 0 13 5 16 10 3 6 2 10 -4 10 -5 0
-13 -4 -16 -10z"/>
<path d="M1499 7243 c-13 -16 -12 -17 4 -4 9 7 17 15 17 17 0 8 -8 3 -21 -13z"/>
<path d="M1400 7175 c-11 -13 -10 -14 4 -9 9 3 16 10 16 15 0 13 -6 11 -20 -6z"/>
<path d="M1555 7169 c-4 -6 -5 -12 -2 -15 2 -3 7 2 10 11 7 17 1 20 -8 4z"/>
<path d="M1575 7030 c-10 -11 -15 -20 -11 -20 11 0 39 30 34 36 -3 2 -13 -5
-23 -16z"/>
<path d="M1456 6897 c-35 -45 -33 -57 1 -15 15 18 32 36 38 40 6 5 6 8 -2 8
-7 0 -23 -15 -37 -33z"/>
<path d="M1819 6899 l-24 -20 30 17 c39 24 40 24 28 24 -6 0 -21 -9 -34 -21z"/>
<path d="M1530 6895 c-14 -17 -35 -21 -25 -5 3 6 1 10 -4 10 -15 0 -14 -15 2
-28 9 -7 17 -3 30 14 20 26 17 33 -3 9z"/>
<path d="M1574 6888 l-19 -23 23 19 c12 11 22 21 22 23 0 8 -8 2 -26 -19z"/>
<path d="M1483 6665 c0 -8 4 -12 9 -9 5 3 6 10 3 15 -9 13 -12 11 -12 -6z"/>
<path d="M1789 6659 l-24 -20 28 17 c15 9 27 18 27 20 0 8 -8 4 -31 -17z"/>
<path d="M1451 6614 c0 -11 3 -14 6 -6 3 7 2 16 -1 19 -3 4 -6 -2 -5 -13z"/>
<path d="M1729 6333 c-13 -16 -12 -17 4 -4 16 13 21 21 13 21 -2 0 -10 -8 -17
-17z"/>
<path d="M1455 6311 c-3 -5 -2 -12 3 -15 5 -3 9 1 9 9 0 17 -3 19 -12 6z"/>
<path d="M1435 6259 c-4 -6 -13 -8 -20 -5 -8 3 -12 -2 -10 -12 1 -9 -2 -23 -8
-29 -6 -9 -6 -13 1 -13 5 0 19 16 31 35 11 19 18 35 16 35 -2 0 -7 -5 -10 -11z"/>
<path d="M1699 6213 c-13 -16 -12 -17 4 -4 9 7 17 15 17 17 0 8 -8 3 -21 -13z"/>
<path d="M1704 6168 l-19 -23 23 19 c21 18 27 26 19 26 -2 0 -12 -10 -23 -22z"/>
<path d="M1700 6057 c-42 -25 -65 -47 -51 -47 5 0 13 5 16 10 4 6 22 17 41 25
19 8 34 19 34 24 0 13 3 14 -40 -12z"/>
<path d="M1368 5916 c-19 -14 -23 -26 -10 -26 4 0 13 9 20 20 14 23 13 24 -10
6z"/>
<path d="M1573 5724 l-28 -25 33 22 c17 13 32 24 32 26 0 8 -11 1 -37 -23z"/>
<path d="M1330 5700 c-6 -11 -8 -20 -6 -20 3 0 10 9 16 20 6 11 8 20 6 20 -3
0 -10 -9 -16 -20z"/>
<path d="M1565 5680 c-3 -6 1 -7 9 -4 18 7 21 14 7 14 -6 0 -13 -4 -16 -10z"/>
<path d="M1330 5660 c-6 -11 -8 -20 -6 -20 3 0 10 9 16 20 6 11 8 20 6 20 -3
0 -10 -9 -16 -20z"/>
<path d="M1539 5523 c-13 -16 -12 -17 4 -4 9 7 17 15 17 17 0 8 -8 3 -21 -13z"/>
<path d="M1305 5480 c-10 -11 -14 -20 -9 -20 5 0 15 9 22 20 7 11 11 20 9 20
-2 0 -12 -9 -22 -20z"/>
<path d="M1519 5453 c-13 -16 -12 -17 4 -4 9 7 17 15 17 17 0 8 -8 3 -21 -13z"/>
<path d="M1260 5375 c-10 -12 -10 -15 4 -15 9 0 16 7 16 15 0 8 -2 15 -4 15
-2 0 -9 -7 -16 -15z"/>
<path d="M1473 5318 c-20 -27 -23 -37 -11 -44 7 -4 10 -3 5 1 -4 5 0 19 8 32
16 24 14 32 -2 11z"/>
<path d="M1440 5245 c-7 -9 -11 -17 -9 -20 3 -2 10 5 17 15 14 24 10 26 -8 5z"/>
<path d="M1379 5153 c-13 -16 -12 -17 4 -4 16 13 21 21 13 21 -2 0 -10 -8 -17
-17z"/>
<path d="M1245 5100 c3 -5 8 -10 11 -10 2 0 4 5 4 10 0 6 -5 10 -11 10 -5 0
-7 -4 -4 -10z"/>
<path d="M6830 4670 c-9 -6 -10 -10 -3 -10 6 0 15 5 18 10 8 12 4 12 -15 0z"/>
<path d="M6895 4620 c-3 -5 -1 -10 4 -10 6 0 11 5 11 10 0 6 -2 10 -4 10 -3 0
-8 -4 -11 -10z"/>
<path d="M7695 4520 c-19 -8 -19 -9 3 -9 12 -1 22 4 22 9 0 6 -1 10 -2 9 -2 0
-12 -4 -23 -9z"/>
<path d="M7638 4483 c6 -2 18 -2 25 0 6 3 1 5 -13 5 -14 0 -19 -2 -12 -5z"/>
<path d="M6510 4460 c-8 -5 -10 -10 -5 -10 6 0 17 5 25 10 8 5 11 10 5 10 -5
0 -17 -5 -25 -10z"/>
<path d="M3240 4066 c0 -2 11 -6 25 -8 13 -3 22 -1 19 3 -5 9 -44 13 -44 5z"/>
<path d="M1945 4002 c-5 -4 -12 -16 -13 -27 -2 -11 -13 -26 -23 -33 -13 -9
-18 -20 -14 -32 3 -11 1 -28 -4 -39 -7 -13 -8 -22 -1 -26 9 -6 14 8 11 28 0 4
4 7 9 7 5 0 10 7 10 15 0 8 5 15 10 15 13 0 13 -6 0 -30 -9 -16 -8 -18 5 -14
9 4 22 22 30 41 19 44 19 52 2 28 -8 -10 -19 -15 -26 -11 -6 4 -20 2 -29 -6
-9 -7 -2 4 16 25 35 41 46 81 17 59z"/>
<path d="M3166 3975 c-11 -8 -15 -15 -9 -15 6 0 16 7 23 15 16 19 11 19 -14 0z"/>
<path d="M2920 3960 c-9 -6 -10 -10 -3 -10 6 0 15 5 18 10 8 12 4 12 -15 0z"/>
<path d="M2854 3934 c-18 -14 -18 -15 4 -4 12 6 22 13 22 15 0 8 -5 6 -26 -11z"/>
<path d="M3248 3943 c7 -3 16 -2 19 1 4 3 -2 6 -13 5 -11 0 -14 -3 -6 -6z"/>
<path d="M2746 3915 c-11 -8 -16 -15 -10 -15 5 0 18 7 28 15 11 8 16 15 10 15
-5 0 -18 -7 -28 -15z"/>
<path d="M2813 3914 c-7 -7 -13 -19 -13 -26 0 -9 -3 -9 -10 2 -9 13 -11 13
-20 0 -5 -8 -10 -11 -10 -6 0 5 -9 -1 -20 -14 -11 -13 -20 -25 -20 -27 0 -7 8
-2 30 17 24 21 46 27 35 10 -15 -24 6 -7 25 21 23 31 24 47 3 23z"/>
<path d="M3065 3920 c-3 -5 -1 -10 4 -10 6 0 11 5 11 10 0 6 -2 10 -4 10 -3 0
-8 -4 -11 -10z"/>
<path d="M2113 3883 c-31 -30 -58 -63 -51 -63 2 0 24 20 48 45 48 48 50 63 3
18z"/>
<path d="M1980 3858 c1 -13 1 -25 0 -28 -1 -3 -3 -12 -5 -20 -2 -8 -8 -29 -13
-47 -8 -24 -7 -33 4 -37 7 -3 16 0 20 6 4 7 3 8 -4 4 -7 -4 -12 -3 -12 3 0 5
5 11 11 13 5 2 12 19 15 38 3 19 15 47 26 63 21 29 4 36 -19 7 -11 -13 -12
-13 -7 3 4 10 1 17 -6 17 -6 0 -11 -10 -10 -22z"/>
<path d="M2215 3860 c-10 -11 -16 -22 -14 -24 2 -2 12 7 22 20 22 29 17 32 -8
4z"/>
<path d="M2504 3858 l-19 -23 23 19 c21 18 27 26 19 26 -2 0 -12 -10 -23 -22z"/>
<path d="M2405 3839 c-4 -6 -5 -12 -2 -15 2 -3 7 2 10 11 7 17 1 20 -8 4z"/>
<path d="M2461 3827 c-13 -21 -12 -21 5 -5 10 10 16 20 13 22 -3 3 -11 -5 -18
-17z"/>
<path d="M1934 3816 c-8 -17 -8 -27 1 -40 11 -15 13 -15 19 -1 3 9 2 13 -4 10
-6 -3 -10 1 -10 9 0 9 5 16 10 16 6 0 10 7 10 15 0 22 -14 18 -26 -9z"/>
<path d="M2016 3805 c-9 -14 -13 -25 -8 -25 5 0 14 11 20 25 6 14 10 25 8 25
-2 0 -11 -11 -20 -25z"/>
<path d="M2582 3801 c-11 -7 -10 -9 3 -14 9 -4 14 -3 10 2 -3 5 1 12 7 14 7 3
9 6 3 6 -5 0 -16 -3 -23 -8z"/>
<path d="M2484 3768 l-19 -23 23 19 c21 18 27 26 19 26 -2 0 -12 -10 -23 -22z"/>
<path d="M2329 3763 c-13 -16 -12 -17 4 -4 9 7 17 15 17 17 0 8 -8 3 -21 -13z"/>
<path d="M2279 3753 c-13 -16 -12 -17 4 -4 9 7 17 15 17 17 0 8 -8 3 -21 -13z"/>
<path d="M2127 3742 c-24 -27 -21 -36 4 -11 11 11 19 23 16 25 -2 2 -11 -4
-20 -14z"/>
<path d="M3247 3440 c-34 -36 -21 -40 17 -5 24 22 30 23 27 3 0 -4 6 -5 14 -2
16 7 21 24 6 24 -5 0 -15 2 -23 5 -7 3 -26 -8 -41 -25z"/>
<path d="M3362 3432 c6 -7 14 -9 17 -4 3 5 13 12 21 15 8 3 1 4 -17 4 -24 -2
-29 -5 -21 -15z"/>
<path d="M3049 3393 c-13 -16 -12 -17 4 -4 16 13 21 21 13 21 -2 0 -10 -8 -17
-17z"/>
<path d="M3310 3400 c-9 -6 -10 -10 -3 -10 6 0 15 5 18 10 8 12 4 12 -15 0z"/>
<path d="M3129 3363 c-13 -16 -12 -17 4 -4 16 13 21 21 13 21 -2 0 -10 -8 -17
-17z"/>
<path d="M3265 3360 c-10 -11 -16 -20 -13 -20 3 0 15 9 28 20 13 11 19 20 13
20 -5 0 -18 -9 -28 -20z"/>
<path d="M3049 3353 c-13 -16 -12 -17 4 -4 16 13 21 21 13 21 -2 0 -10 -8 -17
-17z"/>
<path d="M3430 3366 c0 -2 7 -7 16 -10 8 -3 12 -2 9 4 -6 10 -25 14 -25 6z"/>
<path d="M3691 3357 c-6 -6 -11 -14 -11 -18 0 -10 48 2 60 16 8 9 4 13 -14 13
-14 0 -29 -5 -35 -11z"/>
<path d="M3490 3341 c-8 -6 -18 -7 -22 -5 -4 3 -5 -2 -2 -11 6 -14 8 -14 25 1
27 24 26 31 -1 15z"/>
<path d="M3575 3335 c-37 -13 -38 -14 -6 -9 18 4 40 7 47 8 19 3 30 16 13 15
-8 0 -32 -7 -54 -14z"/>
<path d="M3069 3303 c-13 -14 -18 -23 -11 -19 6 4 12 2 12 -3 0 -6 -7 -11 -15
-11 -8 0 -19 -10 -26 -22 l-11 -21 29 21 c16 12 36 28 43 37 11 13 10 14 -6 9
-19 -7 -19 -7 0 14 27 32 14 27 -15 -5z"/>
<path d="M3000 3309 c0 -5 5 -7 10 -4 6 3 10 8 10 11 0 2 -4 4 -10 4 -5 0 -10
-5 -10 -11z"/>
<path d="M3177 3302 c-10 -10 -17 -22 -17 -27 0 -4 9 2 20 15 11 13 20 25 20
27 0 7 -8 2 -23 -15z"/>
<path d="M3495 3310 c-3 -6 1 -7 9 -4 18 7 21 14 7 14 -6 0 -13 -4 -16 -10z"/>
<path d="M2938 3222 c-30 -29 -44 -52 -40 -59 8 -13 17 -6 58 53 48 68 45 69
-18 6z"/>
<path d="M4069 3193 c-13 -16 -12 -17 4 -4 9 7 17 15 17 17 0 8 -8 3 -21 -13z"/>
<path d="M4115 3150 c-10 -11 -14 -20 -9 -20 5 0 15 9 22 20 7 11 11 20 9 20
-2 0 -12 -9 -22 -20z"/>
<path d="M4038 3136 c-15 -12 -25 -26 -21 -30 11 -11 18 -7 36 24 22 36 20 37
-15 6z"/>
<path d="M3069 3123 c-13 -16 -12 -17 4 -4 9 7 17 15 17 17 0 8 -8 3 -21 -13z"/>
<path d="M4085 3110 c-3 -5 -2 -10 4 -10 5 0 13 5 16 10 3 6 2 10 -4 10 -5 0
-13 -4 -16 -10z"/>
<path d="M3189 3043 c-13 -16 -12 -17 4 -4 9 7 17 15 17 17 0 8 -8 3 -21 -13z"/>
<path d="M3097 3025 c-26 -25 -33 -35 -22 -35 2 0 18 14 35 30 37 36 26 40
-13 5z"/>
<path d="M3309 2873 c-13 -16 -12 -17 4 -4 16 13 21 21 13 21 -2 0 -10 -8 -17
-17z"/>
<path d="M3296 2823 c-6 -14 -5 -15 5 -6 7 7 10 15 7 18 -3 3 -9 -2 -12 -12z"/>
<path d="M3460 2695 c-7 -9 -8 -15 -2 -15 5 0 12 7 16 15 3 8 4 15 2 15 -2 0
-9 -7 -16 -15z"/>
<path d="M4456 2034 c-4 -14 -5 -28 -3 -31 3 -2 8 8 11 23 4 14 5 28 3 31 -3
2 -8 -8 -11 -23z"/>
<path d="M2180 410 c-6 -11 -8 -20 -6 -20 3 0 10 9 16 20 6 11 8 20 6 20 -3 0
-10 -9 -16 -20z"/>
<path d="M2147 345 c-9 -19 -15 -35 -12 -35 7 0 37 61 33 66 -3 2 -12 -12 -21
-31z"/>
<path d="M2116 285 c-9 -26 -7 -32 5 -12 6 10 9 21 6 23 -2 3 -7 -2 -11 -11z"/>
<path d="M2270 240 c0 -5 5 -10 11 -10 5 0 7 5 4 10 -3 6 -8 10 -11 10 -2 0
-4 -4 -4 -10z"/>
<path d="M2253 212 c0 -12 5 -22 9 -22 11 0 10 12 -2 30 -7 12 -9 10 -7 -8z"/>
<path d="M2240 128 c-12 -22 -12 -22 6 -6 10 10 15 20 12 24 -4 3 -12 -5 -18
-18z"/>
<path d="M2204 129 c-3 -6 -2 -15 3 -20 5 -5 9 -1 9 11 0 23 -2 24 -12 9z"/>
</g>
</svg>
